<?xml version="1.0" encoding="utf-8"?>
<!-- Generator: Adobe Illustrator 22.1.0, SVG Export Plug-In . SVG Version: 6.00 Build 0)  -->
<svg version="1.1" id="Layer_1" xmlns="http://www.w3.org/2000/svg" xmlns:xlink="http://www.w3.org/1999/xlink" x="0px" y="0px"
	 viewBox="0 0 500 500" style="enable-background:new 0 0 500 500;" xml:space="preserve">
<style type="text/css">
	.st0{fill:#5573F5;}
	.st1{opacity:0.7;fill:#FFFFFF;enable-background:new    ;}
	.st2{fill:#BFBFBF;}
	.st3{fill:none;stroke:#263238;stroke-width:1.232;stroke-miterlimit:10;}
	.st4{fill:#263238;}
	.st5{fill:none;stroke:#263238;stroke-width:1.232;stroke-linecap:round;stroke-linejoin:round;}
	.st6{fill:#263238;stroke:#263238;stroke-width:1.232;stroke-linecap:round;stroke-linejoin:round;}
	.st7{fill:#FFFFFF;stroke:#263238;stroke-width:1.232;stroke-linecap:round;stroke-linejoin:round;}
	.st8{fill:#5573F5;stroke:#263238;stroke-width:1.232;stroke-linecap:round;stroke-linejoin:round;}
	.st9{fill:#9C9C9C;stroke:#263238;stroke-width:1.232;stroke-linecap:round;stroke-linejoin:round;}
	.st10{fill:#FFFFFF;}
	.st11{clip-path:url(#SVGID_2_);}
	.st12{opacity:0.5;}
	.st13{clip-path:url(#SVGID_4_);}
	.st14{opacity:0.5;fill:#FFFFFF;enable-background:new    ;}
	.st15{fill:#F0587E;}
</style>
<g id="freepik--background-simple--inject-2">
	<path class="st0" d="M123.6,412.5c0,0,48,24.9,102.8-1.4S299,334,327.5,295.7c14.9-20,39.3-31.2,57.9-48.1
		c59.5-53.9,38-144-16.4-168.7c-47.1-21.4-101.5-13.7-168.9,22.5s-116,59.6-151.4,131.8S64,377.6,123.6,412.5z"/>
	<path class="st1" d="M123.6,412.5c0,0,48,24.9,102.8-1.4S299,334,327.5,295.7c14.9-20,39.3-31.2,57.9-48.1
		c59.5-53.9,38-144-16.4-168.7c-47.1-21.4-101.5-13.7-168.9,22.5s-116,59.6-151.4,131.8S64,377.6,123.6,412.5z"/>
</g>
<g id="freepik--Plants--inject-2">
	<path class="st2" d="M415.3,381.1c0,0-3.3-14.1-0.8-26.7s8.3-4.2,15-12.5s3.3-24.2,10.8-30.9s18.4-5.8,20.9-18.4s4.2-22.5,9.2-20.8
		s-4.2,16.7-4.2,25.9s5,15,1.7,24.2s-17.5,5.8-17.5,16.7s5.8,21.7,0.8,29.2s-18.3,9.2-20,13.3s-5.8,11.7-10,11.7
		S415.3,381.1,415.3,381.1z"/>
	<path class="st2" d="M412.6,381.3c0.8-2.5-0.8-24.2-8.3-28.4s-15.9-2.5-20-10s-4.2-10.8-8.3-11.7s-24.2-4.2-21.7,0
		s17.5-2.5,17.5,5.8s-1.7,21.7,3.3,25s18.4,2.5,17.5,10s-3.3,10,0.8,12.5s15.8,13.4,17.5,5L412.6,381.3z"/>
	<path class="st3" d="M421.9,399.7c0,0-3.9-12.1,6.8-34.5s18.5-39.3,23.3-48.1"/>
	<path class="st3" d="M413.1,401.6c0,0-1.5-5.8-6.3-21.9s-10.7-20.4-18.9-25.7s-8.7-14.1-10.2-16.5"/>
	<path class="st2" d="M433.5,392.9c0,0,1-8.7,8.7-11.2s15-1.5,16.5-6.8s1.5-10.7,4.9-13.6s7.8-4.4,8.3-2.9s-4.9,2.4-4.9,7.3
		s7.3,17-3.4,21.9s-19.4,0.5-23.3,3.9s-6.3,5.8-6.3,5.8L433.5,392.9z"/>
	<path class="st3" d="M432.5,401.6c0,0,3.5-12.6,11.7-15.5s17.5,3.4,21.4-2.4s1-11.6,0.5-15.5"/>
	<path class="st4" d="M438,399.7h-30.1c-1.3,0-2.4,1.1-2.4,2.4c0,0,0,0,0,0l0,0c0,1.3,1.1,2.4,2.4,2.4c0,0,0,0,0,0h0.3l2.3,6.1
		c0.4,1,1.3,1.6,2.4,1.6h20.2c1,0,2-0.6,2.4-1.6l2.4-6.1h0.2c1.3,0,2.4-1.1,2.4-2.4l0,0C440.4,400.7,439.3,399.7,438,399.7z"/>
</g>
<g id="freepik--Clock--inject-2">
	<circle class="st5" cx="114.7" cy="163.4" r="31.9"/>
	<circle class="st5" cx="114.7" cy="163.3" r="26.4"/>
	<polyline class="st5" points="97.9,163.4 114.7,163.4 114.7,187.7 	"/>
</g>
<g id="freepik--Character--inject-2">
	<path class="st6" d="M261.8,406.9c0-3,2.4-5.4,5.4-5.4c3,0,5.4,2.4,5.4,5.4c0,3-2.4,5.4-5.4,5.4
		C264.2,412.3,261.8,409.9,261.8,406.9C261.8,407,261.8,406.9,261.8,406.9z"/>
	<path class="st7" d="M264.4,406.9c0-1.5,1.2-2.7,2.7-2.7c1.5,0,2.7,1.2,2.7,2.7c0,1.5-1.2,2.7-2.7,2.7c0,0,0,0,0,0
		C265.6,409.6,264.4,408.4,264.4,406.9z"/>
	<path class="st6" d="M204.4,406.9c0-3,2.4-5.4,5.4-5.4c3,0,5.3,2.4,5.3,5.4c0,3-2.4,5.4-5.3,5.4
		C206.8,412.3,204.4,409.9,204.4,406.9L204.4,406.9z"/>
	<path class="st7" d="M207.1,406.9c0-1.5,1.2-2.7,2.7-2.7c1.5,0,2.7,1.2,2.7,2.7c0,1.5-1.2,2.7-2.7,2.7c0,0,0,0,0,0
		C208.3,409.6,207.1,408.4,207.1,406.9z"/>
	<path class="st6" d="M185.7,406.9c0-3,2.4-5.4,5.4-5.4c3,0,5.3,2.4,5.3,5.4c0,3-2.4,5.4-5.3,5.4
		C188.1,412.3,185.7,409.9,185.7,406.9C185.7,407,185.7,406.9,185.7,406.9z"/>
	<path class="st7" d="M188.4,406.9c0-1.5,1.2-2.7,2.7-2.7c1.5,0,2.7,1.2,2.7,2.7c0,1.5-1.2,2.7-2.7,2.7c0,0,0,0,0,0
		C189.6,409.6,188.4,408.4,188.4,406.9z"/>
	<path class="st6" d="M229.4,400.8h-11.3l0,0v-57.9l0,0h11.3l0,0L229.4,400.8L229.4,400.8z"/>
	<rect x="215.1" y="359.9" class="st6" width="17.3" height="40.9"/>
	<path class="st6" d="M249.8,333.2h-14.5l0,0v-31.1l0,0h14.5l0,0L249.8,333.2L249.8,333.2z"/>
	<path class="st8" d="M213.9,302h56.7c5.5,0,9.9-4.5,9.9-9.9c0-0.1,0-0.2,0-0.2l-1.4-55.3c-0.1-5.4-4.5-9.7-9.9-9.7h-46.8
		c-4.9,0-9.1,3.6-9.8,8.4l-8.5,55.3c-0.8,5.4,2.9,10.5,8.3,11.3C212.9,302,213.4,302,213.9,302z"/>
	<line class="st5" x1="232.4" y1="344.9" x2="257.3" y2="361.3"/>
	<path class="st6" d="M258.2,358.8l4.2,2.9c1.3,0.9,1.6,2.6,0.7,3.9c-0.1,0.1-0.2,0.3-0.3,0.4l-0.3,0.3c-1,1-2.6,1.1-3.7,0.2
		l-3.9-3.2c-1.2-1-1.3-2.7-0.4-3.8c0-0.1,0.1-0.1,0.2-0.2l0,0C255.7,358.2,257.1,358.1,258.2,358.8z"/>
	<path class="st8" d="M177.7,347.7h92.2c4.9,0,8.9-4,8.9-8.9v0l0,0c0-4.9-4-8.9-8.9-8.9h0h-92.2c-4.9,0-8.9,4-8.9,8.9l0,0l0,0
		C168.8,343.8,172.8,347.7,177.7,347.7L177.7,347.7z"/>
	<path class="st8" d="M168.8,337.8c0.7-4.5,4.6-7.8,9.2-7.8h47.8c4.6-0.1,8.5,3.3,9.2,7.8c0.6,4.9-2.9,9.3-7.7,9.9
		c-0.4,0-0.7,0.1-1.1,0.1h-48.5c-4.9,0-8.9-4-8.9-8.9C168.8,338.5,168.8,338.1,168.8,337.8z"/>
	<path class="st6" d="M184,404h88.5c0-2.7-2.2-4.8-4.9-4.8h-78.8C186.2,399.2,184,401.4,184,404z"/>
	<path class="st6" d="M199.8,404h28.8v-4.8h-24C201.9,399.2,199.7,401.4,199.8,404L199.8,404z"/>
	<path class="st6" d="M193.6,292.8l-6.4,10.5c0,0-22.3,2.2-35.1,5.1s-15.3,16.9-15.9,19.8c-0.7,3.2-4.7,70.1-3.4,70.4
		s10.8,1.3,10.8,1.3s16.1-65,20.9-65.9s75.5,0.6,86.1-5.1s13.1-22.3,7-33.8S193.6,292.8,193.6,292.8z"/>
	<path class="st6" d="M236.9,305.5c0,0-29.6,0-44,1.3s-23.3,12.1-22.6,21.7s12.2,72.3,12.2,72.3l11.1-1l6-67.2c0,0,10,6.5,48.8-3.5"
		/>
	<path class="st9" d="M306.7,203.2c-1-0.6-4.1,7.6-4.1,7.6c-2-0.1-4-0.1-6.1,0c-3.5,0.3-6.4,5.1-6.4,8.3s-14.7,28.7-14.7,28.7
		s-12.8-21-17.2-24.5s-21-6.7-21-6.7c-6.8-1.1-13.7-1.1-20.4,0c0,0-16.6,3.2-21,6.7s-17.2,24.5-17.2,24.5S164,222.3,164,219.1
		s-2.9-8-6.4-8.3c-2-0.1-4-0.1-6.1,0c0,0-3.2-8.3-4.1-7.6s0.6,10.8,1.6,13.1s8.9,3.8,8.9,3.8s9.9,37.6,13.1,42.7s6.7,11.5,15.3,7.6
		s19.4-16.3,19.4-16.3l18.2,0.3l0,0h1.4h1.1l0,0l22-0.3c0,0,10.8,12.4,19.4,16.3s12.1-2.5,15.3-7.6s13-42.7,13-42.7s8-1.6,8.9-3.8
		S307.7,203.9,306.7,203.2z"/>
	<path class="st10" d="M280.6,238.7c-2.8,5.1-5.2,9.2-5.2,9.2s-12.8-21-17.2-24.5s-21-6.7-21-6.7c-6.8-1.1-13.7-1.1-20.4,0
		c0,0-16.6,3.2-21,6.7s-17.2,24.5-17.2,24.5s-2.5-4.4-5.5-9.8l-8.8,5.3c2.6,8.8,5.2,17.2,6.6,19.4c3.2,5.1,6.7,11.5,15.3,7.6
		s19.4-16.3,19.4-16.3l18.2,0.3l0,0h1.4h1.1l0,0l22-0.3c0,0,10.8,12.4,19.4,16.3s12.1-2.5,15.3-7.6c1.4-2.2,4.1-10.7,6.6-19.5
		L280.6,238.7z"/>
	<g>
		<defs>
			<path id="SVGID_1_" d="M280.6,238.7c-2.8,5.1-5.2,9.2-5.2,9.2s-12.8-21-17.2-24.5s-21-6.7-21-6.7c-6.8-1.1-13.7-1.1-20.4,0
				c0,0-16.6,3.2-21,6.7s-17.2,24.5-17.2,24.5s-2.5-4.4-5.5-9.8l-8.8,5.3c2.6,8.8,5.2,17.2,6.6,19.4c3.2,5.1,6.7,11.5,15.3,7.6
				s19.4-16.3,19.4-16.3l18.2,0.3l0,0h1.4h1.1l0,0l22-0.3c0,0,10.8,12.4,19.4,16.3s12.1-2.5,15.3-7.6c1.4-2.2,4.1-10.7,6.6-19.5
				L280.6,238.7z"/>
		</defs>
		<clipPath id="SVGID_2_">
			<use xlink:href="#SVGID_1_"  style="overflow:visible;"/>
		</clipPath>
		<g class="st11">
			<path class="st0" d="M273,253.7c-0.2-2.1-0.3-4.1,0.5-5.3c0.4-0.6,0.8-1.2,1.3-1.7l-1.3-2c-0.7,0.8-1.4,1.6-2,2.4
				c-1.3,1.9-1.1,4.4-0.9,6.8c0.2,2.1,0.3,4.1-0.5,5.3c-0.7,1.1-1.4,1-3.4,0.6c-1.8-0.5-3.8-0.5-5.7,0c-1.6,0.6-2.9,2-3.3,3.7
				c0.6,0.5,1.3,1.1,1.9,1.6c0.3-1.4,0.9-2.7,2.1-3.1c1.5-0.4,3-0.4,4.5,0c1.9,0.4,4.1,0.9,5.8-1.6
				C273.4,258.6,273.2,256.1,273,253.7z"/>
			<path class="st0" d="M248.4,254.2l0.8,0.9c0.7-0.3,1.3-0.6,2-1.1c0.7-0.2,1.4-0.2,2.1,0c2.4,0.3,4.8,0.2,7.1-0.5
				c3.9-1.1,4-5.3,4.1-9c0.1-2.1,0.1-4.2,0.9-5.5c0.7-1.3,2.2-1.9,3.6-1.5c-0.5-0.8-1-1.6-1.6-2.4c-1.8,0.1-3.3,1.2-4.1,2.8
				c-1,1.8-1,4.2-1.1,6.5c-0.1,3.9-0.4,6.3-2.5,6.9c-2,0.6-4.2,0.7-6.3,0.4c-1.5-0.1-2.8-0.3-3.8,0.5c-1.5,0.8-3.1,1.5-4.7,2
				L248.4,254.2z"/>
			<path class="st0" d="M193.6,259.9c-1.8-0.5-3.8-0.5-5.7,0c-1.9,0.4-2.7,0.5-3.4-0.6c-0.9-1.3-0.7-3.3-0.5-5.3
				c0.2-2.4,0.4-4.9-0.9-6.8c-0.7-1-1.4-2-2.3-2.8l-1.3,2c0.6,0.6,1.2,1.3,1.7,2.1c0.9,1.3,0.7,3.3,0.5,5.3
				c-0.2,2.4-0.4,4.9,0.9,6.8c1.6,2.4,3.8,2,5.8,1.6c1.5-0.4,3-0.5,4.5,0c1.1,0.5,1.9,1.5,2,2.7c0.6-0.5,1.3-1.1,1.9-1.6
				C196.2,261.6,195.1,260.4,193.6,259.9z"/>
			<path class="st0" d="M201.2,251.7c-2.1,0.3-4.2,0.2-6.3-0.4c-2.1-0.6-2.3-3-2.5-6.9c-0.1-2.3-0.2-4.8-1.1-6.5
				c-0.9-1.8-2.7-2.9-4.7-2.8c-0.6,0.9-1.1,1.7-1.7,2.6c1.2-0.4,3.3-0.7,4.4,1.3c0.7,1.3,0.8,3.4,0.9,5.5c0.1,3.7,0.3,7.9,4.1,9
				c2.3,0.6,4.7,0.8,7.1,0.5c0.7-0.2,1.4-0.2,2.1,0c0.5,0.3,1,0.6,1.5,0.9l0.6-0.6l4.1,0.1c-1.7-0.5-3.3-1.2-4.8-2.1
				C204,251.4,202.7,251.6,201.2,251.7z"/>
			<g class="st12">
				<path class="st10" d="M273,253.7c-0.2-2.1-0.3-4.1,0.5-5.3c0.4-0.6,0.8-1.2,1.3-1.7l-1.3-2c-0.7,0.8-1.4,1.6-2,2.4
					c-1.3,1.9-1.1,4.4-0.9,6.8c0.2,2.1,0.3,4.1-0.5,5.3c-0.7,1.1-1.4,1-3.4,0.6c-1.8-0.5-3.8-0.5-5.7,0c-1.6,0.6-2.9,2-3.3,3.7
					c0.6,0.5,1.3,1.1,1.9,1.6c0.3-1.4,0.9-2.7,2.1-3.1c1.5-0.4,3-0.4,4.5,0c1.9,0.4,4.1,0.9,5.8-1.6
					C273.4,258.6,273.2,256.1,273,253.7z"/>
				<path class="st10" d="M248.4,254.2l0.8,0.9c0.7-0.3,1.3-0.6,2-1.1c0.7-0.2,1.4-0.2,2.1,0c2.4,0.3,4.8,0.2,7.1-0.5
					c3.9-1.1,4-5.3,4.1-9c0.1-2.1,0.1-4.2,0.9-5.5c0.7-1.3,2.2-1.9,3.6-1.5c-0.5-0.8-1-1.6-1.6-2.4c-1.8,0.1-3.3,1.2-4.1,2.8
					c-1,1.8-1,4.2-1.1,6.5c-0.1,3.9-0.4,6.3-2.5,6.9c-2,0.6-4.2,0.7-6.3,0.4c-1.5-0.1-2.8-0.3-3.8,0.5c-1.5,0.8-3.1,1.5-4.7,2
					L248.4,254.2z"/>
				<path class="st10" d="M193.6,259.9c-1.8-0.5-3.8-0.5-5.7,0c-1.9,0.4-2.7,0.5-3.4-0.6c-0.9-1.3-0.7-3.3-0.5-5.3
					c0.2-2.4,0.4-4.9-0.9-6.8c-0.7-1-1.4-2-2.3-2.8l-1.3,2c0.6,0.6,1.2,1.3,1.7,2.1c0.9,1.3,0.7,3.3,0.5,5.3
					c-0.2,2.4-0.4,4.9,0.9,6.8c1.6,2.4,3.8,2,5.8,1.6c1.5-0.4,3-0.5,4.5,0c1.1,0.5,1.9,1.5,2,2.7c0.6-0.5,1.3-1.1,1.9-1.6
					C196.2,261.6,195.1,260.4,193.6,259.9z"/>
				<path class="st10" d="M201.2,251.7c-2.1,0.3-4.2,0.2-6.3-0.4c-2.1-0.6-2.3-3-2.5-6.9c-0.1-2.3-0.2-4.8-1.1-6.5
					c-0.9-1.8-2.7-2.9-4.7-2.8c-0.6,0.9-1.1,1.7-1.7,2.6c1.2-0.4,3.3-0.7,4.4,1.3c0.7,1.3,0.8,3.4,0.9,5.5c0.1,3.7,0.3,7.9,4.1,9
					c2.3,0.6,4.7,0.8,7.1,0.5c0.7-0.2,1.4-0.2,2.1,0c0.5,0.3,1,0.6,1.5,0.9l0.6-0.6l4.1,0.1c-1.7-0.5-3.3-1.2-4.8-2.1
					C204,251.4,202.7,251.6,201.2,251.7z"/>
			</g>
		</g>
	</g>
	<path class="st5" d="M280.6,238.7c-2.8,5.1-5.2,9.2-5.2,9.2s-12.8-21-17.2-24.5s-21-6.7-21-6.7c-6.8-1.1-13.7-1.1-20.4,0
		c0,0-16.6,3.2-21,6.7s-17.2,24.5-17.2,24.5s-2.5-4.4-5.5-9.8l-8.8,5.3c2.6,8.8,5.2,17.2,6.6,19.4c3.2,5.1,6.7,11.5,15.3,7.6
		s19.4-16.3,19.4-16.3l18.2,0.3l0,0h1.4h1.1l0,0l22-0.3c0,0,10.8,12.4,19.4,16.3s12.1-2.5,15.3-7.6c1.4-2.2,4.1-10.7,6.6-19.5
		L280.6,238.7z"/>
	<path class="st10" d="M199.6,238.9c0,0-4.1,8.9-3.2,14.7c0.5,2.3,0.8,4.7,0.9,7c0,0-6,16.6-7,22.6c-0.9,5.1,1.2,10.3,5.4,13.4
		c3.5,2.5,51.3,3.2,58.6,1.3s6.7-8.9,6.4-15.3s-2.8-20.1-2.8-20.1s1-19.4-3.2-24.2"/>
	<g>
		<defs>
			<path id="SVGID_3_" d="M199.6,238.9c0,0-4.1,8.9-3.2,14.7c0.5,2.3,0.8,4.7,0.9,7c0,0-6,16.6-7,22.6c-0.9,5.1,1.2,10.3,5.4,13.4
				c3.5,2.5,51.3,3.2,58.6,1.3s6.7-8.9,6.4-15.3s-2.8-20.1-2.8-20.1s1-19.4-3.2-24.2"/>
		</defs>
		<clipPath id="SVGID_4_">
			<use xlink:href="#SVGID_3_"  style="overflow:visible;"/>
		</clipPath>
		<g class="st13">
			<path class="st0" d="M236.2,251.7c-1.7-0.1-3.3-0.8-4.5-2.1c-4.4-4-7.3-4.7-10.3-2.4l-1.4,1.1c-3.2,2.4-6.2,4.7-10.9,1.8
				c-1.1-0.7-2.1-1.4-2.9-2c-3.2-2.3-4.6-3.2-6.8-1.3c-1.7,1.4-3,2.2-4.5,2c-1.9-0.2-3.3-2-5.9-5.6l-0.2-0.2
				c-0.8-1.2-2.1-2.1-3.5-2.3c-1.5,0-3,0.6-4.1,1.7c-0.4,0.5-1.2,0.5-1.6,0c0,0,0,0,0,0c-0.5-0.4-0.5-1.2,0-1.6c0,0,0,0,0,0
				c1.6-1.5,3.7-2.4,5.8-2.4c2.1,0.2,4,1.4,5.2,3.2l0.2,0.2c2.1,2.7,3.4,4.6,4.4,4.7c0.5,0.1,1.4-0.4,2.8-1.5c3.7-3.1,6.6-1,9.6,1.2
				c0.9,0.6,1.8,1.3,2.8,1.9c3.4,2.1,5.2,0.7,8.3-1.7c0.5-0.4,1-0.7,1.5-1.1c5.1-3.7,9.6-0.8,13.3,2.6c2.8,2.5,4.5,1.4,8.1-1.3
				c0.7-0.5,1.4-1.1,2.2-1.6l0.4-0.3c4.7-3.3,5.2-3,11.6,0.5l1.7,0.9c2.2,1.2,3.6,2,4.2,1.9s1.1-0.7,2.3-2.1c0.5-0.6,1.1-1.2,1.8-2
				c5.2-5.5,6.9-5.2,11-3.3l0.3,0.1c0.6,0.3,0.8,0.9,0.6,1.5c-0.3,0.6-0.9,0.8-1.5,0.6l-0.3-0.1c-3.4-1.6-4.1-1.9-8.4,2.8
				c-0.7,0.8-1.3,1.4-1.8,1.9c-3.3,3.8-4,3.6-9.4,0.6l-1.7-0.9c-5.6-3.1-5.6-3.1-9.2-0.6l-0.4,0.3c-0.8,0.5-1.5,1.1-2.1,1.6
				C240.6,250.1,238.5,251.7,236.2,251.7z M242.8,259.6c0.7-0.5,1.4-1,2.1-1.6l0.4-0.3c3.5-2.5,3.5-2.4,9.2,0.6l1.7,0.9
				c5.3,3,6,3.1,9.4-0.6c0.5-0.6,1.1-1.2,1.8-2c4.3-4.6,4.9-4.3,8.4-2.8l0.3,0.1c0.6,0.3,1.3,0,1.5-0.6c0.3-0.6,0-1.3-0.6-1.5
				l-0.3-0.1c-4.1-1.9-5.8-2.3-11,3.3c-0.7,0.8-1.3,1.4-1.8,2c-1.2,1.4-1.8,2-2.3,2.1s-2-0.7-4.2-1.9l-1.7-0.9
				c-6.4-3.5-6.9-3.8-11.6-0.5l-0.4,0.3c-0.8,0.5-1.5,1.1-2.2,1.6c-3.6,2.8-5.4,3.9-8.1,1.3c-3.7-3.4-8.1-6.3-13.3-2.6
				c-0.5,0.4-1,0.8-1.5,1.1c-3.1,2.4-4.9,3.8-8.3,1.7c-1-0.6-1.9-1.3-2.8-1.9c-3-2.2-5.9-4.3-9.6-1.2c-1.4,1.1-2.2,1.6-2.8,1.5
				c-0.9-0.1-2.3-1.9-4.4-4.7l-0.2-0.2c-1.2-1.8-3.1-2.9-5.2-3.2c-2.2,0-4.3,0.8-5.8,2.4c-0.5,0.4-0.5,1.2,0,1.6c0,0,0,0,0,0
				c0.4,0.5,1.2,0.5,1.6,0c0,0,0,0,0,0c1.1-1.1,2.5-1.7,4.1-1.7c1.4,0.2,2.7,1,3.5,2.3l0.2,0.2c2.7,3.6,4,5.3,5.9,5.6
				c1.5,0.2,2.8-0.6,4.5-2c2.3-1.9,3.6-1,6.8,1.3c0.9,0.6,1.8,1.3,2.9,2c4.7,2.9,7.7,0.6,10.9-1.8l1.4-1.1c3.1-2.2,6-1.6,10.3,2.4
				c1.2,1.2,2.8,1.9,4.5,2C238.5,262.8,240.6,261.2,242.8,259.6z"/>
			<path class="st14" d="M236.2,251.7c-1.7-0.1-3.3-0.8-4.5-2.1c-4.4-4-7.3-4.7-10.3-2.4l-1.4,1.1c-3.2,2.4-6.2,4.7-10.9,1.8
				c-1.1-0.7-2.1-1.4-2.9-2c-3.2-2.3-4.6-3.2-6.8-1.3c-1.7,1.4-3,2.2-4.5,2c-1.9-0.2-3.3-2-5.9-5.6l-0.2-0.2
				c-0.8-1.2-2.1-2.1-3.5-2.3c-1.5,0-3,0.6-4.1,1.7c-0.4,0.5-1.2,0.5-1.6,0c0,0,0,0,0,0c-0.5-0.4-0.5-1.2,0-1.6c0,0,0,0,0,0
				c1.6-1.5,3.7-2.4,5.8-2.4c2.1,0.2,4,1.4,5.2,3.2l0.2,0.2c2.1,2.7,3.4,4.6,4.4,4.7c0.5,0.1,1.4-0.4,2.8-1.5c3.7-3.1,6.6-1,9.6,1.2
				c0.9,0.6,1.8,1.3,2.8,1.9c3.4,2.1,5.2,0.7,8.3-1.7c0.5-0.4,1-0.7,1.5-1.1c5.1-3.7,9.6-0.8,13.3,2.6c2.8,2.5,4.5,1.4,8.1-1.3
				c0.7-0.5,1.4-1.1,2.2-1.6l0.4-0.3c4.7-3.3,5.2-3,11.6,0.5l1.7,0.9c2.2,1.2,3.6,2,4.2,1.9s1.1-0.7,2.3-2.1c0.5-0.6,1.1-1.2,1.8-2
				c5.2-5.5,6.9-5.2,11-3.3l0.3,0.1c0.6,0.3,0.8,0.9,0.6,1.5c-0.3,0.6-0.9,0.8-1.5,0.6l-0.3-0.1c-3.4-1.6-4.1-1.9-8.4,2.8
				c-0.7,0.8-1.3,1.4-1.8,1.9c-3.3,3.8-4,3.6-9.4,0.6l-1.7-0.9c-5.6-3.1-5.6-3.1-9.2-0.6l-0.4,0.3c-0.8,0.5-1.5,1.1-2.1,1.6
				C240.6,250.1,238.5,251.7,236.2,251.7z M242.8,259.6c0.7-0.5,1.4-1,2.1-1.6l0.4-0.3c3.5-2.5,3.5-2.4,9.2,0.6l1.7,0.9
				c5.3,3,6,3.1,9.4-0.6c0.5-0.6,1.1-1.2,1.8-2c4.3-4.6,4.9-4.3,8.4-2.8l0.3,0.1c0.6,0.3,1.3,0,1.5-0.6c0.3-0.6,0-1.3-0.6-1.5
				l-0.3-0.1c-4.1-1.9-5.8-2.3-11,3.3c-0.7,0.8-1.3,1.4-1.8,2c-1.2,1.4-1.8,2-2.3,2.1s-2-0.7-4.2-1.9l-1.7-0.9
				c-6.4-3.5-6.9-3.8-11.6-0.5l-0.4,0.3c-0.8,0.5-1.5,1.1-2.2,1.6c-3.6,2.8-5.4,3.9-8.1,1.3c-3.7-3.4-8.1-6.3-13.3-2.6
				c-0.5,0.4-1,0.8-1.5,1.1c-3.1,2.4-4.9,3.8-8.3,1.7c-1-0.6-1.9-1.3-2.8-1.9c-3-2.2-5.9-4.3-9.6-1.2c-1.4,1.1-2.2,1.6-2.8,1.5
				c-0.9-0.1-2.3-1.9-4.4-4.7l-0.2-0.2c-1.2-1.8-3.1-2.9-5.2-3.2c-2.2,0-4.3,0.8-5.8,2.4c-0.5,0.4-0.5,1.2,0,1.6c0,0,0,0,0,0
				c0.4,0.5,1.2,0.5,1.6,0c0,0,0,0,0,0c1.1-1.1,2.5-1.7,4.1-1.7c1.4,0.2,2.7,1,3.5,2.3l0.2,0.2c2.7,3.6,4,5.3,5.9,5.6
				c1.5,0.2,2.8-0.6,4.5-2c2.3-1.9,3.6-1,6.8,1.3c0.9,0.6,1.8,1.3,2.9,2c4.7,2.9,7.7,0.6,10.9-1.8l1.4-1.1c3.1-2.2,6-1.6,10.3,2.4
				c1.2,1.2,2.8,1.9,4.5,2C238.5,262.8,240.6,261.2,242.8,259.6z"/>
		</g>
	</g>
	<path class="st5" d="M199.6,238.9c0,0-4.1,8.9-3.2,14.7c0.5,2.3,0.8,4.7,0.9,7c0,0-6,16.6-7,22.6c-0.9,5.1,1.2,10.3,5.4,13.4
		c3.5,2.5,51.3,3.2,58.6,1.3s6.7-8.9,6.4-15.3s-2.8-20.1-2.8-20.1s1-19.4-3.2-24.2"/>
	<path class="st8" d="M216.8,216.6l-1.4,0.3c-0.1,0.6-0.2,1.2-0.2,1.8c0,6.1,6.5,11,14.5,11s14.5-4.9,14.5-11c0-0.2,0-0.3,0-0.5
		c-3.9-1-7-1.6-7-1.6C230.5,215.5,223.6,215.5,216.8,216.6z"/>
	<path class="st9" d="M220,210.5c0,0-1,7.6,0,10.2s7,7.3,13.1,5.4c4.1-1.3,6.9-5,7-9.2V208l-19.8,0.6L220,210.5z"/>
	<ellipse class="st6" cx="230.2" cy="185.2" rx="22.6" ry="22.1"/>
	<path class="st9" d="M215.9,192.7c0,0-1.9-4.5-3.2-0.3s1.6,9.3,3.5,9.6S215.9,192.7,215.9,192.7z"/>
	<path class="st9" d="M243.4,192.7c0,0,1.9-4.5,3.2-0.3s-1.6,9.3-3.5,9.6S243.4,192.7,243.4,192.7z"/>
	<path class="st9" d="M239.6,177.8c-1.7-1.3-3.9-1.8-6.1-1.5c-1.9,0.4-3.9,0.5-5.9,0.4c-3.2-0.3-5.7-1.6-8.3,1s-3.8,14.3-3.8,20.4
		s4.4,14.6,7.7,16.9s12.1,1.9,14.3,0s5.7-8.9,6.4-14.7s-0.6-16.9-1.9-19.8C241.5,179.5,240.6,178.5,239.6,177.8z"/>
	<ellipse class="st4" cx="225.5" cy="191.7" rx="1.2" ry="1.9"/>
	<path class="st4" d="M236.1,191.7c0,1.1-0.5,1.9-1.2,1.9s-1.2-0.9-1.2-1.9s0.5-1.9,1.2-1.9S236.1,190.6,236.1,191.7z"/>
	<path class="st4" d="M231.6,202.7c0,1.1-0.5,1.9-1.2,1.9s-1.2-0.9-1.2-1.9s0.5-1.9,1.2-1.9S231.6,201.6,231.6,202.7z"/>
	<path class="st9" d="M228.1,194.1c-2,3.1,1.8,5.1,4.3,3.2c1.7-1.3,0-3.2,0-3.2"/>
	<path class="st5" d="M221.4,187.4c0,0,3.2-3,6.5-1.5"/>
	<path class="st5" d="M233.2,186.1c0,0,3-1.9,5.8,1.7"/>
	<path class="st7" d="M132.8,398.6c0,0-19.2,3.8-19.2,5.7s24.4,7.5,27,7.8s3-12.2,3-12.2L132.8,398.6z"/>
	<path class="st8" d="M142.3,410.2l-27.3-7c-0.8,0.4-1.3,0.7-1.3,1c0,2,24.4,7.5,27,7.8C141.3,412.2,141.8,411.4,142.3,410.2z"/>
	<path class="st7" d="M182.5,400.8c0,0-19.4,8.4-18.1,10.3s26.7,1,29.3,0.6s0-11.9,0-11.9L182.5,400.8z"/>
	<path class="st8" d="M165,409.9c-0.6,0.5-0.8,0.9-0.6,1.2c1.3,2,26.7,1,29.3,0.6c0.6-0.1,0.9-0.8,1.1-1.9H165z"/>
</g>
<g id="freepik--Device--inject-2">
	<rect x="103.1" y="269.8" class="st7" width="73.3" height="3"/>
	<rect x="82.4" y="269.8" class="st7" width="73.3" height="3"/>
	<polygon class="st7" points="90.6,264.5 151.7,264.5 145.1,217.8 84,217.8 	"/>
	<polygon class="st6" points="88,264.5 149.2,264.5 142.6,217.8 81.4,217.8 	"/>
	<path class="st7" d="M106.8,242.8l-6.1,29.9h15.8l6.1-29.9H106.8z M117.5,251.7c-0.1,0.3-0.3,0.4-0.5,0.4L108,252
		c-0.3,0-0.6-0.3-0.6-0.6c0,0,0-0.1,0-0.1l0.8-3.4c0.1-0.3,0.3-0.4,0.6-0.4l8.9,0.1c0.3,0,0.5,0.3,0.5,0.6c0,0,0,0.1,0,0.1
		L117.5,251.7z"/>
	<circle class="st8" cx="82.8" cy="214.4" r="11.3"/>
	<path class="st4" d="M82.7,216.7l-3.3,3.8c-0.1,0.2-0.3,0.4-0.5,0.5c-0.5,0.4-1.1,0.4-1.6,0.3c-0.4-0.1-0.8-0.4-0.9-0.9
		c-0.2-0.7,0-1.5,0.5-1.9l3.8-4.1l-3.7-4.3c-0.3-0.3-0.4-0.8-0.5-1.2c0-0.4,0.1-0.7,0.3-1c0.2-0.2,0.5-0.4,0.9-0.6
		c0.4-0.1,0.8-0.1,1.1,0c0.4,0.2,0.8,0.4,1.1,0.8l3.2,3.8l3-3.5c0.2-0.2,0.3-0.4,0.6-0.6c0.5-0.4,1.1-0.6,1.7-0.3
		c0.4,0.2,0.7,0.5,0.9,0.9c0.2,0.5,0.1,1-0.2,1.4l-4,4.4l4,4.7c0.1,0.2,0.2,0.3,0.3,0.5c0.2,0.5,0.1,1.1-0.3,1.5
		c-0.3,0.4-0.8,0.6-1.3,0.6c-0.7,0-1.5-0.4-1.8-1L82.7,216.7z"/>
</g>
<g id="freepik--Table--inject-2">
	<path class="st7" d="M227,289.7l-3.2,119.7c0,1.6-1.3,2.9-2.9,2.9l0,0c-1.6,0-2.9-1.3-2.9-2.9l-1.6-119.7L227,289.7z"/>
	<path class="st7" d="M188.3,289.7l-3.2,119.7c0,1.6-1.3,2.9-2.9,2.9l0,0c-1.6,0-2.9-1.3-2.9-2.9l-1.6-119.7L188.3,289.7z"/>
	<path class="st7" d="M92.7,289.7l-3.2,119.7c0,1.6-1.3,2.9-2.9,2.9l0,0c-1.6,0-2.9-1.3-2.9-2.9l-1.6-119.7H92.7z"/>
	<path class="st7" d="M54,289.7l-3.1,119.7c0,1.6-1.3,2.8-2.9,2.9l0,0c-1.6,0-3-1.2-3-2.9c0,0,0,0,0,0l-1.5-119.7H54z"/>
	<rect x="39.9" y="276.7" class="st7" width="190.9" height="14.3"/>
	<rect x="177.5" y="276.7" class="st7" width="53.3" height="14.3"/>
	<rect x="39.9" y="276.7" class="st6" width="190.9" height="7.2"/>
	<rect x="37" y="271.7" class="st8" width="196.8" height="7.9"/>
	<rect x="37" y="271.7" class="st8" width="137" height="7.9"/>
</g>
<g id="freepik--Floor--inject-2">
	<line class="st5" x1="466.8" y1="412.3" x2="475" y2="412.3"/>
	<line class="st5" x1="19" y1="412.3" x2="453.4" y2="412.3"/>
</g>
<g>
	<path class="st4" d="M299.8,89.8c-0.2,0.2-0.3,0.2-0.6,0.2h-21.4c-0.2,0-0.3,0.1-0.3,0.3v10.1c0,0.2,0.1,0.3,0.3,0.3h14
		c0.2,0,0.4,0.1,0.6,0.2c0.2,0.2,0.2,0.3,0.2,0.6v6.3c0,0.2-0.1,0.4-0.2,0.6c-0.2,0.2-0.3,0.2-0.6,0.2h-14c-0.2,0-0.3,0.1-0.3,0.3
		v10.5c0,0.2,0.1,0.3,0.3,0.3h21.4c0.2,0,0.4,0.1,0.6,0.2c0.2,0.2,0.2,0.3,0.2,0.6v6.3c0,0.2-0.1,0.4-0.2,0.6
		c-0.2,0.2-0.3,0.2-0.6,0.2h-30.1c-0.2,0-0.4-0.1-0.6-0.2c-0.2-0.2-0.2-0.3-0.2-0.6v-44c0-0.2,0.1-0.4,0.2-0.6
		c0.2-0.2,0.3-0.2,0.6-0.2h30.1c0.2,0,0.4,0.1,0.6,0.2c0.2,0.2,0.2,0.3,0.2,0.6v6.3C300,89.4,300,89.6,299.8,89.8z"/>
	<path class="st4" d="M330.5,127.1l-8.1-18c-0.1-0.2-0.2-0.3-0.4-0.3h-6.1c-0.2,0-0.3,0.1-0.3,0.3v17.8c0,0.2-0.1,0.4-0.2,0.6
		c-0.2,0.2-0.3,0.2-0.6,0.2h-7.6c-0.2,0-0.4-0.1-0.6-0.2c-0.2-0.2-0.2-0.3-0.2-0.6v-44c0-0.2,0.1-0.4,0.2-0.6
		c0.2-0.2,0.3-0.2,0.6-0.2h18.6c2.8,0,5.2,0.6,7.3,1.7c2.1,1.1,3.7,2.7,4.9,4.8c1.1,2.1,1.7,4.5,1.7,7.2c0,3-0.7,5.5-2.2,7.6
		c-1.5,2.1-3.5,3.6-6.2,4.5c-0.2,0.1-0.3,0.2-0.2,0.5l8.9,18.4c0.1,0.2,0.1,0.3,0.1,0.4c0,0.3-0.2,0.5-0.7,0.5h-8
		C331,127.7,330.7,127.5,330.5,127.1z M315.6,90.3v11.1c0,0.2,0.1,0.3,0.3,0.3h8.5c1.8,0,3.3-0.5,4.5-1.6c1.1-1.1,1.7-2.5,1.7-4.2
		c0-1.7-0.6-3.2-1.7-4.3c-1.2-1.1-2.6-1.7-4.5-1.7h-8.5C315.7,90,315.6,90.1,315.6,90.3z"/>
	<path class="st4" d="M370.5,127.1l-8.1-18c-0.1-0.2-0.2-0.3-0.4-0.3h-6.1c-0.2,0-0.3,0.1-0.3,0.3v17.8c0,0.2-0.1,0.4-0.2,0.6
		c-0.2,0.2-0.3,0.2-0.6,0.2h-7.6c-0.2,0-0.4-0.1-0.6-0.2c-0.2-0.2-0.2-0.3-0.2-0.6v-44c0-0.2,0.1-0.4,0.2-0.6
		c0.2-0.2,0.3-0.2,0.6-0.2h18.6c2.8,0,5.2,0.6,7.3,1.7c2.1,1.1,3.7,2.7,4.9,4.8c1.1,2.1,1.7,4.5,1.7,7.2c0,3-0.7,5.5-2.2,7.6
		c-1.5,2.1-3.5,3.6-6.2,4.5c-0.2,0.1-0.3,0.2-0.2,0.5l8.9,18.4c0.1,0.2,0.1,0.3,0.1,0.4c0,0.3-0.2,0.5-0.7,0.5h-8
		C371,127.7,370.6,127.5,370.5,127.1z M355.6,90.3v11.1c0,0.2,0.1,0.3,0.3,0.3h8.5c1.8,0,3.3-0.5,4.5-1.6c1.1-1.1,1.7-2.5,1.7-4.2
		c0-1.7-0.6-3.2-1.7-4.3c-1.2-1.1-2.6-1.7-4.5-1.7h-8.5C355.7,90,355.6,90.1,355.6,90.3z"/>
	<path class="st4" d="M393.6,126.3c-2.6-1.4-4.6-3.3-6-5.8c-1.4-2.5-2.1-5.4-2.1-8.6V98c0-3.2,0.7-6.1,2.1-8.5
		c1.4-2.5,3.4-4.4,6-5.8c2.6-1.4,5.6-2.1,9-2.1c3.4,0,6.4,0.7,9,2.1c2.6,1.4,4.6,3.3,6,5.8c1.4,2.5,2.1,5.3,2.1,8.5v13.9
		c0,3.3-0.7,6.1-2.1,8.7c-1.4,2.5-3.4,4.5-6,5.8c-2.6,1.4-5.6,2.1-9,2.1C399.2,128.4,396.2,127.7,393.6,126.3z M408.4,118.3
		c1.5-1.5,2.2-3.5,2.2-6.1V97.9c0-2.5-0.7-4.5-2.2-6.1c-1.5-1.5-3.4-2.3-5.8-2.3c-2.4,0-4.3,0.8-5.8,2.3c-1.5,1.5-2.2,3.6-2.2,6.1
		v14.3c0,2.5,0.7,4.5,2.2,6.1c1.5,1.5,3.4,2.3,5.8,2.3C405,120.5,406.9,119.8,408.4,118.3z"/>
	<path class="st4" d="M450.9,127.1l-8.1-18c-0.1-0.2-0.2-0.3-0.4-0.3h-6.1c-0.2,0-0.3,0.1-0.3,0.3v17.8c0,0.2-0.1,0.4-0.2,0.6
		c-0.2,0.2-0.3,0.2-0.6,0.2h-7.6c-0.2,0-0.4-0.1-0.6-0.2c-0.2-0.2-0.2-0.3-0.2-0.6v-44c0-0.2,0.1-0.4,0.2-0.6
		c0.2-0.2,0.3-0.2,0.6-0.2h18.6c2.8,0,5.2,0.6,7.3,1.7c2.1,1.1,3.7,2.7,4.9,4.8c1.1,2.1,1.7,4.5,1.7,7.2c0,3-0.7,5.5-2.2,7.6
		c-1.5,2.1-3.5,3.6-6.2,4.5c-0.2,0.1-0.3,0.2-0.2,0.5l8.9,18.4c0.1,0.2,0.1,0.3,0.1,0.4c0,0.3-0.2,0.5-0.7,0.5h-8
		C451.4,127.7,451,127.5,450.9,127.1z M436,90.3v11.1c0,0.2,0.1,0.3,0.3,0.3h8.5c1.8,0,3.3-0.5,4.5-1.6c1.1-1.1,1.7-2.5,1.7-4.2
		c0-1.7-0.6-3.2-1.7-4.3c-1.2-1.1-2.6-1.7-4.5-1.7h-8.5C436.1,90,436,90.1,436,90.3z"/>
</g>
<g>
	<path class="st15" d="M344.6,157.7c-1-0.4-1.8-1.1-2.4-1.9c-0.6-0.8-0.8-1.8-0.8-2.8v-0.6c0-0.1,0-0.2,0.1-0.2
		c0.1-0.1,0.1-0.1,0.2-0.1h2.9c0.1,0,0.2,0,0.2,0.1c0.1,0.1,0.1,0.1,0.1,0.2v0.4c0,0.7,0.3,1.3,0.9,1.7c0.6,0.5,1.5,0.7,2.6,0.7
		c0.9,0,1.6-0.2,2-0.6s0.7-0.9,0.7-1.4c0-0.4-0.1-0.8-0.4-1c-0.3-0.3-0.6-0.5-1.1-0.7c-0.5-0.2-1.2-0.5-2.2-0.9
		c-1.1-0.4-2.1-0.8-2.9-1.2c-0.8-0.4-1.5-1-2-1.7c-0.5-0.7-0.8-1.6-0.8-2.6c0-1,0.3-1.9,0.8-2.7c0.5-0.8,1.3-1.4,2.2-1.8
		c0.9-0.4,2-0.6,3.3-0.6c1.3,0,2.5,0.2,3.5,0.7c1,0.5,1.8,1.1,2.4,1.9c0.6,0.8,0.9,1.8,0.9,2.9v0.4c0,0.1,0,0.2-0.1,0.2
		c-0.1,0.1-0.1,0.1-0.2,0.1h-2.9c-0.1,0-0.2,0-0.2-0.1c-0.1-0.1-0.1-0.1-0.1-0.2v-0.2c0-0.7-0.3-1.3-0.9-1.8
		c-0.6-0.5-1.4-0.8-2.4-0.8c-0.8,0-1.4,0.2-1.9,0.5c-0.5,0.3-0.7,0.8-0.7,1.4c0,0.4,0.1,0.8,0.4,1.1c0.3,0.3,0.7,0.6,1.2,0.8
		s1.3,0.5,2.4,0.9c1.2,0.4,2.2,0.8,2.9,1.2c0.7,0.3,1.3,0.9,1.9,1.5c0.6,0.7,0.8,1.6,0.8,2.6c0,1.6-0.6,2.9-1.8,3.8
		c-1.2,0.9-2.8,1.4-4.8,1.4C346.8,158.3,345.6,158.1,344.6,157.7z"/>
	<path class="st15" d="M360.1,157.6c-1-0.5-1.8-1.3-2.4-2.3s-0.8-2.1-0.8-3.4v-5.5c0-1.3,0.3-2.4,0.8-3.4c0.6-1,1.4-1.7,2.4-2.3
		s2.2-0.8,3.5-0.8c1.3,0,2.5,0.3,3.5,0.8s1.8,1.3,2.4,2.3c0.6,1,0.8,2.1,0.8,3.4v5.5c0,1.3-0.3,2.4-0.8,3.4c-0.6,1-1.4,1.8-2.4,2.3
		s-2.2,0.8-3.5,0.8C362.3,158.4,361.1,158.1,360.1,157.6z M365.9,154.4c0.6-0.6,0.9-1.4,0.9-2.4v-5.6c0-1-0.3-1.8-0.9-2.4
		c-0.6-0.6-1.3-0.9-2.3-0.9c-0.9,0-1.7,0.3-2.3,0.9c-0.6,0.6-0.9,1.4-0.9,2.4v5.6c0,1,0.3,1.8,0.9,2.4c0.6,0.6,1.3,0.9,2.3,0.9
		S365.3,155,365.9,154.4z"/>
	<path class="st15" d="M373.2,158c-0.1-0.1-0.1-0.1-0.1-0.2v-17.3c0-0.1,0-0.2,0.1-0.2c0.1-0.1,0.1-0.1,0.2-0.1h3
		c0.1,0,0.2,0,0.2,0.1c0.1,0.1,0.1,0.1,0.1,0.2v14.4c0,0.1,0,0.1,0.1,0.1h8.4c0.1,0,0.2,0,0.2,0.1s0.1,0.1,0.1,0.2v2.5
		c0,0.1,0,0.2-0.1,0.2c-0.1,0.1-0.1,0.1-0.2,0.1h-11.8C373.4,158.1,373.3,158.1,373.2,158z"/>
	<path class="st15" d="M387.9,158c-0.1-0.1-0.1-0.1-0.1-0.2v-17.3c0-0.1,0-0.2,0.1-0.2c0.1-0.1,0.1-0.1,0.2-0.1h3
		c0.1,0,0.2,0,0.2,0.1c0.1,0.1,0.1,0.1,0.1,0.2v17.3c0,0.1,0,0.2-0.1,0.2c-0.1,0.1-0.1,0.1-0.2,0.1h-3
		C388,158.1,388,158.1,387.9,158z"/>
	<path class="st15" d="M397.3,157.6c-1-0.5-1.8-1.3-2.3-2.2c-0.5-0.9-0.8-2-0.8-3.3v-5.9c0-1.2,0.3-2.3,0.8-3.3
		c0.5-0.9,1.3-1.7,2.3-2.2c1-0.5,2.2-0.8,3.5-0.8c1.3,0,2.5,0.2,3.5,0.7c1,0.5,1.8,1.2,2.3,2.1c0.6,0.9,0.8,1.9,0.8,3.1
		c0,0.2-0.1,0.2-0.3,0.3l-3,0.2h-0.1c-0.2,0-0.3-0.1-0.3-0.3c0-0.9-0.3-1.6-0.8-2.2c-0.6-0.5-1.3-0.8-2.2-0.8
		c-0.9,0-1.7,0.3-2.2,0.8c-0.6,0.5-0.8,1.3-0.8,2.2v6.2c0,0.9,0.3,1.6,0.8,2.2c0.6,0.5,1.3,0.8,2.2,0.8c0.9,0,1.6-0.3,2.2-0.8
		c0.6-0.5,0.8-1.3,0.8-2.2c0-0.2,0.1-0.3,0.3-0.3l3,0.1c0.1,0,0.2,0,0.2,0.1c0.1,0.1,0.1,0.1,0.1,0.2c0,1.2-0.3,2.2-0.8,3.1
		c-0.6,0.9-1.3,1.6-2.3,2.1c-1,0.5-2.2,0.7-3.5,0.7C399.5,158.3,398.4,158.1,397.3,157.6z"/>
	<path class="st15" d="M410.2,158c-0.1-0.1-0.1-0.1-0.1-0.2v-17.3c0-0.1,0-0.2,0.1-0.2c0.1-0.1,0.1-0.1,0.2-0.1h3
		c0.1,0,0.2,0,0.2,0.1c0.1,0.1,0.1,0.1,0.1,0.2v17.3c0,0.1,0,0.2-0.1,0.2c-0.1,0.1-0.1,0.1-0.2,0.1h-3
		C410.4,158.1,410.3,158.1,410.2,158z"/>
	<path class="st15" d="M429.5,140.3c0.1,0.1,0.1,0.1,0.1,0.2v2.5c0,0.1,0,0.2-0.1,0.2c-0.1,0.1-0.1,0.1-0.2,0.1h-4.6
		c-0.1,0-0.1,0-0.1,0.1v14.4c0,0.1,0,0.2-0.1,0.2c-0.1,0.1-0.1,0.1-0.2,0.1h-3c-0.1,0-0.2,0-0.2-0.1c-0.1-0.1-0.1-0.1-0.1-0.2v-14.4
		c0-0.1,0-0.1-0.1-0.1h-4.5c-0.1,0-0.2,0-0.2-0.1c-0.1-0.1-0.1-0.1-0.1-0.2v-2.5c0-0.1,0-0.2,0.1-0.2c0.1-0.1,0.1-0.1,0.2-0.1h12.9
		C429.3,140.2,429.4,140.2,429.5,140.3z"/>
	<path class="st15" d="M434.9,157.6c-1-0.5-1.8-1.2-2.3-2.2c-0.6-0.9-0.8-2-0.8-3.2v-11.7c0-0.1,0-0.2,0.1-0.2
		c0.1-0.1,0.1-0.1,0.2-0.1h3c0.1,0,0.2,0,0.2,0.1c0.1,0.1,0.1,0.1,0.1,0.2v11.7c0,0.9,0.3,1.6,0.8,2.2c0.6,0.6,1.3,0.8,2.2,0.8
		c0.9,0,1.6-0.3,2.2-0.8c0.6-0.6,0.8-1.3,0.8-2.2v-11.7c0-0.1,0-0.2,0.1-0.2c0.1-0.1,0.1-0.1,0.2-0.1h3c0.1,0,0.2,0,0.2,0.1
		c0.1,0.1,0.1,0.1,0.1,0.2v11.7c0,1.2-0.3,2.3-0.8,3.2c-0.6,0.9-1.3,1.7-2.3,2.2c-1,0.5-2.2,0.8-3.5,0.8S435.9,158.1,434.9,157.6z"
		/>
	<path class="st15" d="M448.1,158c-0.1-0.1-0.1-0.1-0.1-0.2v-17.3c0-0.1,0-0.2,0.1-0.2c0.1-0.1,0.1-0.1,0.2-0.1h6.4
		c1.3,0,2.4,0.2,3.4,0.7c1,0.5,1.7,1.1,2.2,1.9c0.5,0.8,0.8,1.8,0.8,2.8v7.1c0,1.1-0.3,2-0.8,2.8c-0.5,0.8-1.3,1.5-2.2,1.9
		c-1,0.5-2.1,0.7-3.4,0.7h-6.4C448.2,158.1,448.1,158.1,448.1,158z M451.7,155h3.1c0.8,0,1.4-0.3,1.9-0.8c0.5-0.5,0.7-1.2,0.8-2.1
		v-5.9c0-0.9-0.2-1.6-0.7-2.1c-0.5-0.5-1.1-0.8-2-0.8h-3.1c-0.1,0-0.1,0-0.1,0.1v11.5C451.6,155,451.6,155,451.7,155z"/>
	<path class="st15" d="M378.5,174c-0.1,0.1-0.1,0.1-0.2,0.1h-8.4c-0.1,0-0.1,0-0.1,0.1v4c0,0.1,0,0.1,0.1,0.1h5.5
		c0.1,0,0.2,0,0.2,0.1c0.1,0.1,0.1,0.1,0.1,0.2v2.5c0,0.1,0,0.2-0.1,0.2c-0.1,0.1-0.1,0.1-0.2,0.1h-5.5c-0.1,0-0.1,0-0.1,0.1v7.1
		c0,0.1,0,0.2-0.1,0.2c-0.1,0.1-0.1,0.1-0.2,0.1h-3c-0.1,0-0.2,0-0.2-0.1c-0.1-0.1-0.1-0.1-0.1-0.2v-17.3c0-0.1,0-0.2,0.1-0.2
		c0.1-0.1,0.1-0.1,0.2-0.1h11.8c0.1,0,0.2,0,0.2,0.1c0.1,0.1,0.1,0.1,0.1,0.2v2.5C378.6,173.8,378.6,173.9,378.5,174z"/>
	<path class="st15" d="M389.6,188.6l-0.8-2.5c0-0.1-0.1-0.1-0.1-0.1h-6.3c-0.1,0-0.1,0-0.1,0.1l-0.7,2.5c-0.1,0.2-0.2,0.3-0.3,0.3
		h-3.3c-0.1,0-0.2,0-0.2-0.1c-0.1-0.1-0.1-0.1,0-0.3l5.5-17.3c0.1-0.2,0.2-0.3,0.3-0.3h4c0.2,0,0.3,0.1,0.3,0.3l5.5,17.3
		c0,0,0,0.1,0,0.1c0,0.2-0.1,0.2-0.3,0.2h-3.3C389.7,188.9,389.6,188.8,389.6,188.6z M383.3,183.2h4.5c0.1,0,0.1-0.1,0.1-0.2
		l-2.3-7.6c0-0.1,0-0.1-0.1-0.1s-0.1,0-0.1,0.1l-2.3,7.6C383.2,183.2,383.2,183.2,383.3,183.2z"/>
	<path class="st15" d="M395.8,188.8c-0.1-0.1-0.1-0.1-0.1-0.2v-17.3c0-0.1,0-0.2,0.1-0.2c0.1-0.1,0.1-0.1,0.2-0.1h3
		c0.1,0,0.2,0,0.2,0.1c0.1,0.1,0.1,0.1,0.1,0.2v14.4c0,0.1,0,0.1,0.1,0.1h8.4c0.1,0,0.2,0,0.2,0.1c0.1,0.1,0.1,0.1,0.1,0.2v2.5
		c0,0.1,0,0.2-0.1,0.2c-0.1,0.1-0.1,0.1-0.2,0.1H396C395.9,188.9,395.9,188.9,395.8,188.8z"/>
	<path class="st15" d="M410.5,188.8c-0.1-0.1-0.1-0.1-0.1-0.2v-17.3c0-0.1,0-0.2,0.1-0.2c0.1-0.1,0.1-0.1,0.2-0.1h3
		c0.1,0,0.2,0,0.2,0.1c0.1,0.1,0.1,0.1,0.1,0.2v14.4c0,0.1,0,0.1,0.1,0.1h8.4c0.1,0,0.2,0,0.2,0.1c0.1,0.1,0.1,0.1,0.1,0.2v2.5
		c0,0.1,0,0.2-0.1,0.2c-0.1,0.1-0.1,0.1-0.2,0.1h-11.8C410.6,188.9,410.5,188.9,410.5,188.8z"/>
	<path class="st15" d="M425.1,188.8c-0.1-0.1-0.1-0.1-0.1-0.2v-17.3c0-0.1,0-0.2,0.1-0.2c0.1-0.1,0.1-0.1,0.2-0.1h3
		c0.1,0,0.2,0,0.2,0.1c0.1,0.1,0.1,0.1,0.1,0.2v17.3c0,0.1,0,0.2-0.1,0.2c-0.1,0.1-0.1,0.1-0.2,0.1h-3
		C425.2,188.9,425.2,188.9,425.1,188.8z"/>
	<path class="st15" d="M431.9,188.8c-0.1-0.1-0.1-0.1-0.1-0.2v-17.3c0-0.1,0-0.2,0.1-0.2c0.1-0.1,0.1-0.1,0.2-0.1h6.4
		c1.3,0,2.4,0.2,3.4,0.7c1,0.5,1.7,1.1,2.2,1.9c0.5,0.8,0.8,1.8,0.8,2.8v7.1c0,1.1-0.3,2-0.8,2.8c-0.5,0.8-1.3,1.5-2.2,1.9
		c-1,0.5-2.1,0.7-3.4,0.7h-6.4C432,188.9,431.9,188.9,431.9,188.8z M435.5,185.8h3.1c0.8,0,1.4-0.3,1.9-0.8c0.5-0.5,0.7-1.2,0.8-2.1
		V177c0-0.9-0.2-1.6-0.7-2.1c-0.5-0.5-1.1-0.8-2-0.8h-3.1c-0.1,0-0.1,0-0.1,0.1v11.5C435.4,185.7,435.4,185.8,435.5,185.8z"/>
	<path class="st15" d="M457.7,188.6l-0.8-2.5c0-0.1-0.1-0.1-0.1-0.1h-6.3c-0.1,0-0.1,0-0.1,0.1l-0.7,2.5c-0.1,0.2-0.2,0.3-0.3,0.3
		H446c-0.1,0-0.2,0-0.2-0.1c-0.1-0.1-0.1-0.1,0-0.3l5.5-17.3c0.1-0.2,0.2-0.3,0.3-0.3h4c0.2,0,0.3,0.1,0.3,0.3l5.5,17.3
		c0,0,0,0.1,0,0.1c0,0.2-0.1,0.2-0.3,0.2H458C457.9,188.9,457.7,188.8,457.7,188.6z M451.4,183.2h4.5c0.1,0,0.1-0.1,0.1-0.2
		l-2.3-7.6c0-0.1,0-0.1-0.1-0.1s-0.1,0-0.1,0.1l-2.3,7.6C451.3,183.2,451.3,183.2,451.4,183.2z"/>
</g>
</svg>
