<?xml version="1.0" encoding="utf-8"?>
<!-- Generator: Adobe Illustrator 22.1.0, SVG Export Plug-In . SVG Version: 6.00 Build 0)  -->
<svg version="1.1" id="Layer_1" xmlns="http://www.w3.org/2000/svg" xmlns:xlink="http://www.w3.org/1999/xlink" x="0px" y="0px"
	 viewBox="0 0 100 100" style="enable-background:new 0 0 100 100;" xml:space="preserve">
<style type="text/css">
	.st0{fill:#5674F3;}
</style>
<g id="Grupo_530" transform="translate(-373.548 -736.142)">
	<path id="Trazado_2166" class="st0" d="M423.5,786.4L423.5,786.4c11.3,0,20.4-9.2,20.4-20.4c0-11.3-9.2-20.4-20.4-20.4
		c-11.3,0-20.4,9.2-20.4,20.4c-0.1,11.2,8.9,20.3,20.1,20.4C423.3,786.4,423.4,786.4,423.5,786.4L423.5,786.4z M414.1,756.5
		c5.2-5.2,13.7-5.2,18.9,0c5.2,5.2,5.2,13.7,0,18.9c-2.5,2.5-5.9,3.9-9.5,3.9l0,0c-7.4,0-13.4-6-13.4-13.4
		C410.1,762.4,411.5,759,414.1,756.5z"/>
	<path id="Trazado_2167" class="st0" d="M456.9,823.4c0-0.9,0.6-23.2-13.4-36c-1.2-1.1-3.1-1.2-4.5-0.2c-0.2,0.1-15.6,11.7-30,0
		c-1.3-1.1-3.2-1-4.5,0.1c-0.6,0.5-14,12.5-14.4,35.9c0,1.9,1.5,3.5,3.4,3.5c0,0,0,0,0.1,0l0,0h59.8
		C455.3,826.7,456.9,825.2,456.9,823.4z M397.3,819.8c0.6-9.3,4-18.1,9.9-25.3c12.6,8.3,26.1,4.4,33.5-0.1c7.1,8,8.8,19.7,9.1,25.3
		L397.3,819.8z"/>
</g>
</svg>
