<svg id="Layer_1" data-name="Layer 1" xmlns="http://www.w3.org/2000/svg" viewBox="0 0 353 334"><defs><style>.cls-1{fill:#707070;}.cls-2{fill:#f38d9f;}</style></defs><title>Hands</title><path class="cls-1" d="M367.86,327.85c-.87-.69-97.34-75.63-117.11-90.57C237.1,227,204.68,223.85,191.42,223.9a146.29,146.29,0,0,1-27.67-2L144,218.46c-21.64-3.83-35.94-6.36-60.61-9.47-17.66-2.23-22.76-6.11-24.23-8.22a2.57,2.57,0,0,1-.58-1.71,1.31,1.31,0,0,0,.1-.32c1.33-3.4,18.11-2.58,32.66-1.47,24.13,1.85,35.47,3.24,38.32,3.61,0,.29.05.58.08.86a1.79,1.79,0,0,0,2,1.6l.19,0a1.79,1.79,0,0,0,1.41-1.94c-.91-8.81-.33-26.51,2.66-34.17a1.79,1.79,0,1,0-3.34-1.3c-.26.68-.51,1.44-.74,2.24-13.95.44-57.55,1.54-68.29,1A7,7,0,0,1,64.71,165c1-1.52,2.86-2.5,5.42-2.9,10.18-1.59,34.86-2.91,52.89-3.86,5.69-.31,11.06-.59,15.22-.84,28.24-1.72,45.2-5.9,45.37-5.94a1.79,1.79,0,0,0,0-3.47c-10.25-2.79-37.74-12-41.83-20.9a4.05,4.05,0,0,1-.06-3.65c4.31-9,25.1-5.07,64.56,3.34,24.63,5.25,41.64,11.64,74.37,42.36C286.83,174.91,303,187,365,224c0-1.36.08-2.71.15-4.07-46.8-27.92-73.38-45.24-82-53.37-30.17-28.32-46.8-37-76.07-43.26C163.5,114,144,110.37,138.52,121.9a7.56,7.56,0,0,0,0,6.69c4.26,9.27,25.79,17.18,37.28,20.82A319.31,319.31,0,0,1,138,153.82c-4.14.25-9.51.54-15.19.84-19.11,1-42.9,2.28-53.25,3.9-3.6.56-6.24,2.06-7.86,4.47A10.55,10.55,0,0,0,60,168.87c-3.06-.16-8.64-.1-12.41,2a8.29,8.29,0,0,0-4.33,8.19c-2.93,0-7.82.5-10.65,3.16a6.88,6.88,0,0,0-2.18,5.33c.19,8.25,18.1,11.56,24.63,12.5a6.55,6.55,0,0,0,.9,2.36c3,4.84,12,8.25,27,10.13,24.59,3.1,38.85,5.62,60.44,9.44,5.92,1.05,12.37,2.19,19.72,3.47a149.82,149.82,0,0,0,28.29,2c13-.05,44.94,3.42,57.16,12.65,19.74,14.92,116.19,89.84,117.06,90.53a1.79,1.79,0,0,0,2.21-2.82ZM49.37,174c3.57-2,10.17-1.68,12.46-1.39,7.93.81,56.16-.47,69.23-.86a97.09,97.09,0,0,0-1.47,12.54c-14.38-.86-41.24-2.52-61.08-3.74-9.09-.57-16.85-1.05-21.59-1.33A4.81,4.81,0,0,1,49.37,174Zm6.44,22.53c-9.39-1.32-21.66-4.82-21.76-9.06a3.28,3.28,0,0,1,1.05-2.63c2.42-2.27,8.21-2.31,10.28-2.13l22.91,1.41c19.86,1.23,46.76,2.89,61.14,3.74-.1,3.31-.09,6.53,0,9.38-3.81-.49-15.26-1.82-37.8-3.54C67.44,191.85,58.37,192.45,55.81,196.53Z"/><path class="cls-2" d="M129,159.79s-50.79-14.61-47.14-47.24c2-18.16,26.54-21.35,37-3.43C122.29,87.74,145.31,82,154.2,98,170.17,126.69,129,159.79,129,159.79Z"/><path class="cls-2" d="M110.37,73.11l-.09,0a2.45,2.45,0,0,1-2.76-2l-8-43.94a2.45,2.45,0,1,1,4.82-.88l8,43.94A2.45,2.45,0,0,1,110.37,73.11Z"/><path class="cls-2" d="M100.1,16.89a2.46,2.46,0,0,1-2.83-2L95.45,4.32a2.45,2.45,0,0,1,4.83-.83l1.82,10.57A2.45,2.45,0,0,1,100.1,16.89Z"/><path class="cls-2" d="M85.86,79.79a2.81,2.81,0,0,1-.87.3,2.46,2.46,0,0,1-2.48-1.21L57.17,34.72a2.45,2.45,0,1,1,4.25-2.45L86.76,76.44A2.45,2.45,0,0,1,85.86,79.79Z"/><path class="cls-2" d="M159.86,73.78a2.45,2.45,0,0,1-3.41.62,2.45,2.45,0,0,1-.62-3.41l34.34-49.52a2.45,2.45,0,0,1,4,2.8Z"/><path class="cls-2" d="M224.68,62.27l-8.38,5a2.49,2.49,0,0,1-.9.32,2.45,2.45,0,0,1-1.61-4.53l8.38-5a2.45,2.45,0,0,1,2.51,4.21Z"/><path class="cls-2" d="M203.49,73.83,177.15,87.32a2.24,2.24,0,0,1-.76.24,2.45,2.45,0,0,1-1.48-4.6l26.35-13.49a2.45,2.45,0,1,1,2.23,4.36Z"/><path class="cls-2" d="M68.85,88.87a2.45,2.45,0,0,1,1.27,3.22,2.42,2.42,0,0,1-1.89,1.45,2.36,2.36,0,0,1-1.33-.17L55.11,88.26a2.45,2.45,0,0,1,2-4.5Z"/><path class="cls-2" d="M33.11,78.33a2.52,2.52,0,0,1-1.37-.2L4.05,65.54a2.45,2.45,0,0,1,2-4.46L33.77,73.67a2.46,2.46,0,0,1-.66,4.66Z"/><path class="cls-2" d="M62.18,109.87a2.46,2.46,0,0,1-2.09,2.52l-.27,0-51.89,2a2.45,2.45,0,0,1-.19-4.89l51.89-2A2.46,2.46,0,0,1,62.18,109.87Z"/><path class="cls-2" d="M60.54,138.34a2.45,2.45,0,0,1,2,4.48L29.07,157.6a2.85,2.85,0,0,1-.63.19,2.45,2.45,0,0,1-1.35-4.67Z"/><path class="cls-2" d="M208.17,110.61l-23.92,3.52a2.45,2.45,0,1,1-.71-4.85l23.92-3.52a2.45,2.45,0,0,1,.71,4.85Z"/><path class="cls-2" d="M138.76,27.1a2.45,2.45,0,0,1,2.08,2.78l-5.35,37.78a2.45,2.45,0,0,1-2.07,2.08,2.73,2.73,0,0,1-.7,0A2.45,2.45,0,0,1,130.64,67L136,29.19A2.46,2.46,0,0,1,138.76,27.1Z"/><path class="cls-2" d="M223,106a3.78,3.78,0,1,1-4.28-3.18A3.78,3.78,0,0,1,223,106Z"/><circle class="cls-2" cx="140.5" cy="17.75" r="3.77"/><path class="cls-2" d="M14.55,153.79a3.78,3.78,0,1,1-3.18,4.29A3.78,3.78,0,0,1,14.55,153.79Z"/><path class="cls-2" d="M50.88,23.86a3.78,3.78,0,1,1,3.19-4.29A3.78,3.78,0,0,1,50.88,23.86Z"/><path class="cls-2" d="M44.32,84.17a3.78,3.78,0,1,1,3.18-4.28A3.79,3.79,0,0,1,44.32,84.17Z"/></svg>