<?xml version="1.0" encoding="utf-8"?>
<!-- Generator: Adobe Illustrator 22.1.0, SVG Export Plug-In . SVG Version: 6.00 Build 0)  -->
<svg version="1.1" id="Layer_1" xmlns="http://www.w3.org/2000/svg" xmlns:xlink="http://www.w3.org/1999/xlink" x="0px" y="0px"
	 viewBox="0 0 353 334" style="enable-background:new 0 0 353 334;" xml:space="preserve">
<style type="text/css">
	.st0{fill:#FDC23E;}
	.st1{fill:#9CAFFF;}
</style>
<title>Hands</title>
<path class="st0" d="M196.1,49.7L196.1,49.7c1,0.1,1.9-0.6,2.1-1.5l2.7-18.2c0.1-1-0.6-1.9-1.6-2c-0.1,0-0.1,0-0.2,0
	c-0.9,0-1.7,0.8-1.8,1.7l-2.6,18.1C194.5,48.7,195.1,49.6,196.1,49.7z"/>
<path class="st0" d="M200,22.5c1,0.1,1.8-0.5,2-1.5l1.1-7.7c0.2-1-0.5-1.9-1.4-2.1c-1-0.2-1.9,0.5-2.1,1.4c0,0,0,0.1,0,0.1l-1.1,7.7
	C198.3,21.5,199,22.3,200,22.5z"/>
<path class="st0" d="M164,23.5c-1,0.2-1.6,1.1-1.4,2.1c0,0,0,0,0,0l4.9,24.5c0.2,0.7,0.7,1.3,1.4,1.4c0.2,0,0.4,0,0.7,0
	c1-0.2,1.6-1.2,1.4-2.1l-4.9-24.5C165.9,23.9,165,23.3,164,23.5z"/>
<path class="st0" d="M287.8,47.6c-0.6-0.8-1.7-0.9-2.5-0.3l-35.1,26.6c-0.8,0.6-0.9,1.7-0.4,2.5c0.3,0.4,0.7,0.6,1.1,0.7
	c0.5,0.1,1,0,1.4-0.3l35.1-26.6C288.2,49.5,288.4,48.4,287.8,47.6z"/>
<path class="st0" d="M301.7,92.5c-0.2-1-1.2-1.6-2.1-1.3l-7,1.6c-1,0.2-1.6,1.2-1.4,2.1c0.2,0.7,0.7,1.3,1.5,1.4c0.2,0,0.5,0,0.7,0
	l7-1.6C301.3,94.5,301.9,93.5,301.7,92.5C301.7,92.5,301.7,92.5,301.7,92.5z"/>
<path class="st0" d="M282.4,94.3L261,97.7c-1,0.1-1.7,1.1-1.5,2c0.1,0.8,0.7,1.4,1.5,1.5c0.2,0,0.4,0,0.6,0l21.4-3.4
	c1-0.2,1.6-1.1,1.5-2.1C284.3,94.8,283.4,94.2,282.4,94.3L282.4,94.3z"/>
<path class="st0" d="M141.5,61.1c0.3,0.2,0.6,0.4,0.9,0.4c1,0.2,1.9-0.5,2.1-1.5c0.1-0.6-0.1-1.2-0.6-1.7l-7-6.2
	c-0.7-0.7-1.9-0.6-2.5,0.1c-0.7,0.7-0.6,1.9,0.1,2.5L141.5,61.1z"/>
<path class="st0" d="M120.6,42.5c0.3,0.2,0.6,0.4,0.9,0.4c0.6,0.1,1.2-0.1,1.6-0.5c0.7-0.7,0.6-1.9-0.1-2.5c0,0,0,0,0,0l-16.4-15
	c-0.7-0.7-1.9-0.6-2.5,0.1c-0.7,0.7-0.6,1.9,0.1,2.5l0,0L120.6,42.5z"/>
<path class="st0" d="M122.3,89.9c0.3-1-0.3-1.9-1.2-2.2c0,0,0,0,0,0L84.5,77.3c-1-0.3-1.9,0.3-2.2,1.2c-0.3,1,0.3,1.9,1.2,2.2
	L120,91.1h0.2C121.1,91.3,122,90.8,122.3,89.9z"/>
<path class="st0" d="M112.3,118l-26.6,2.7c-1,0.1-1.7,1-1.6,2c0.1,0.8,0.7,1.4,1.5,1.6c0.2,0,0.3,0,0.5,0l26.6-2.7
	c1-0.1,1.7-1,1.5-2C114.1,118.6,113.2,117.9,112.3,118L112.3,118z"/>
<path class="st0" d="M282.8,123.5l-17.4-3c-1-0.2-1.9,0.5-2.1,1.5c-0.2,1,0.5,1.9,1.5,2.1l0,0l17.4,3c1,0.2,1.9-0.5,2.1-1.5
	C284.4,124.6,283.8,123.7,282.8,123.5z"/>
<path class="st0" d="M228.1,58.6c0.2,0.1,0.3,0.1,0.5,0.2c0.8,0.1,1.6-0.3,1.9-1l12.3-25c0.4-0.9,0.1-2-0.8-2.4
	c-0.9-0.4-2-0.1-2.4,0.8l-12.3,25C226.9,57.1,227.2,58.1,228.1,58.6C228.1,58.6,228.1,58.6,228.1,58.6z"/>
<path class="st0" d="M291.3,124c-1.5-0.3-2.9,0.7-3.2,2.3s0.7,2.9,2.3,3.2c1.5,0.3,2.9-0.7,3.2-2.2
	C293.8,125.7,292.8,124.3,291.3,124C291.3,124,291.3,124,291.3,124z"/>
<path class="st0" d="M244.9,27c1.5,0.3,2.9-0.7,3.2-2.3s-0.7-2.9-2.3-3.2c-1.5-0.3-2.9,0.7-3.2,2.2C242.4,25.3,243.4,26.7,244.9,27z
	"/>
<path class="st0" d="M77.1,121c-1.5-0.3-2.9,0.8-3.2,2.3s0.8,2.9,2.3,3.2c1.5,0.3,2.9-0.7,3.2-2.2C79.6,122.7,78.6,121.3,77.1,121
	C77.1,121,77.1,121,77.1,121z"/>
<path class="st0" d="M161.9,16.4c1.5,0.3,2.9-0.7,3.2-2.3c0.3-1.5-0.7-2.9-2.3-3.2c-1.5-0.3-2.9,0.7-3.2,2.2
	C159.4,14.7,160.4,16.2,161.9,16.4C161.9,16.4,161.9,16.4,161.9,16.4z"/>
<path class="st0" d="M127.9,49.6c1.5,0.3,2.9-0.7,3.2-2.3c0.3-1.5-0.7-2.9-2.3-3.2c-1.5-0.3-2.9,0.7-3.2,2.2
	C125.4,47.9,126.4,49.3,127.9,49.6C127.9,49.6,127.9,49.6,127.9,49.6z"/>
<path class="st0" d="M233.3,143.7c-0.1-0.8-1.5-18.1-1.5-19.1c0-0.5,0-1,0-1.5c-0.7-9.3-8.8-16.3-18.1-15.6
	c-4.5,0.3-8.7,2.5-11.6,5.9l-0.9,1l-1-0.9c-7.2-6-17.8-5-23.8,2.1c-1.7,2.1-2.9,4.5-3.5,7.1l-0.2,1h-0.7l-7.3,0.6l0.3-1.7
	c0.1-0.8,0.3-1.6,0.5-2.3c3.5-13.2,17.1-21,30.3-17.5c0.7,0.2,1.4,0.4,2,0.6l0.2,0.1c0.3,0.2,0.6,0.3,1,0.4c0.4,0.1,0.8,0.1,1.3,0.1
	l0,0c2.2-0.1,3.9-2,3.7-4.2c-0.1-1.4-0.9-2.6-2.1-3.3c-0.3-0.2-0.7-0.3-1-0.4h-0.1c-16.9-6.3-35.7,2.2-42.1,19.1
	c-1,2.8-1.7,5.6-1.9,8.6l-0.1,1.2l-8,0.7l0.1-1.6c0.2-3.9,1-7.7,2.4-11.4c7.5-20.8,30.5-31.7,51.3-24.2c6.6,2.4,12.4,6.4,17,11.8
	l0.1,0.1c0.1,0.2,0.3,0.4,0.5,0.6c0.2,0.2,0.5,0.4,0.7,0.6c0,0,0.1,0,0.1,0.1l1.1,0.4h0.1c0.4,0.1,0.8,0.1,1.2,0.1
	c2.2-0.2,3.9-2.1,3.7-4.4c-0.1-0.7-0.3-1.3-0.6-1.9c-0.2-0.2-0.4-0.5-0.6-0.7l-0.1-0.1c-17.2-20.2-47.6-22.7-67.8-5.4
	c-11.8,10-18,25.1-16.8,40.5c0.1,1.3,0.3,2.5,0.5,3.8c0.1,0.9,0.3,1.8,0.5,2.7c1.2,5.5,3.4,10.8,6.4,15.5c0.5,0.8,1,1.5,1.5,2.2
	c2.6,3.5,5.6,6.7,9,9.5c2-0.4,3.9-0.7,4.5-0.9c1.4-0.3,2.8-0.6,4.3-0.9l0,0c-0.1-1-0.5-1.9-1.2-2.6c-0.2-0.2-0.4-0.4-0.7-0.5
	c0,0-0.1-0.1-0.1-0.1l-0.2-0.1l-0.1-0.1c-3.5-2.6-6.6-5.7-9.2-9.3c-0.5-0.8-1-1.5-1.5-2.3c-2.4-4-4.1-8.3-5-12.8
	c0-0.2-0.1-0.4-0.1-0.7l-0.3-1.5l7.8-0.6l0.3,3.1l0.4,4.8l0,0c0.1,0.7,0.4,1.4,0.9,2c0.8,0.9,2,1.5,3.2,1.5h0.2
	c2.2-0.2,3.9-2.1,3.7-4.4c0,0,0,0,0,0c0-0.3-0.1-0.5-0.1-0.8l-0.6-6.8l7.8-0.6l2,24v0.1c0.2,1.4,1.1,2.5,2.4,3.1
	c1.3,0.6,2.8,0.4,4-0.4c1-0.7,1.6-1.8,1.7-3c0-0.5,0-1-0.1-1.5v-0.1l-2-24.2V128c0-0.1,0-0.1,0-0.2v-0.2c0-0.2,0-0.3,0-0.5
	c0-0.2,0-0.3-0.1-0.5v-0.2v-0.2c0.1-4.8,4.1-8.7,9-8.6c4.3,0.1,8,3.4,8.5,7.7v0.3c0,0,0,0.1,0,0.1v0.2v0.2v0.2l1,11.8l1,12.5v0.1
	c0,0.2,0,0.3,0,0.5c0.2,2.2,2.2,3.9,4.4,3.7h0.1c2.1-0.2,3.8-2,3.8-4.1c0-0.1,0-0.2,0-0.3c0-0.3-0.1-0.5-0.1-0.8v-0.1l-0.6-7.1
	l-1.3-16c0-0.3,0-0.6,0-1v-0.1c0-0.1,0-0.3,0-0.4c0-0.1,0-0.2,0-0.3v-0.3c0-0.1,0-0.1,0-0.2V124c0.2-4.8,4.2-8.6,9-8.5
	c4.3,0.1,7.9,3.4,8.4,7.7v0.1c0,0.1,0,0.2,0,0.3v0.1c0,0,0,0,0,0.1c0,0.1,0,0.1,0,0.2l0.1,0.5l1.5,18.8l-0.2,0.3
	c-2.1,4.4-5,8.4-8.6,11.8h0.4c1.9,0,3.8,0.1,5.6,0.5c1.2,0.2,2.4,0.7,3.4,1.3c0.9-1.1,1.8-2.3,2.6-3.5c1.3-1.9,2.5-3.9,3.6-6
	C232.4,146.8,233.3,144.5,233.3,143.7z"/>
<path class="st0" d="M183.7,57.3c-38.1,3.1-66.4,36.4-63.4,74.5c0.3,3.2,0.7,6.4,1.4,9.5c0.2,0.9,0.4,1.8,0.6,2.6
	c1.5,5.6,3.7,11.1,6.5,16.2c0.4,0.8,0.9,1.6,1.4,2.4c1.1,1.7,2.2,3.4,3.4,5.1l1.7-0.3h0.2c-1.3-1.7-2.5-3.5-3.7-5.3
	c-0.5-0.8-1-1.6-1.4-2.4c-2.9-5.1-5.1-10.5-6.5-16.2c-0.2-0.9-0.4-1.8-0.6-2.6c-3-13.6-1.7-27.8,3.8-40.6
	c14.5-34.4,54.1-50.5,88.4-36s50.5,54.1,36,88.4c-3.1,7.3-7.4,13.9-12.7,19.7l0.1,0.1c0.5,0.3,0.9,0.6,1.2,1
	c26-28,24.4-71.8-3.7-97.8C222.2,62.3,203.1,55.7,183.7,57.3L183.7,57.3z"/>
<path class="st0" d="M157.8,187.9l0.6-1.6c0,0-0.1,0-0.1,0.1C158,186.8,157.8,187.4,157.8,187.9z"/>
<path class="st0" d="M135.6,170l2-0.3h-0.2L135.6,170z"/>
<path class="st0" d="M250.8,121.3c-2.8-34-32.5-59.3-66.5-56.5c-34,2.8-59.3,32.5-56.5,66.5c0.2,2.5,0.6,4.9,1.1,7.4
	c0.2,0.9,0.4,1.8,0.6,2.7c1.4,5.7,3.7,11.1,6.6,16.2c0.5,0.8,1,1.6,1.5,2.4c1.4,2.2,3,4.3,4.7,6.3l1.8-0.3h0.1
	c-1.8-2.1-3.5-4.3-5.1-6.6c-0.5-0.8-1-1.5-1.5-2.3c-3-5-5.3-10.5-6.7-16.2c-0.2-0.9-0.4-1.8-0.6-2.7c-6.5-32.5,14.5-64.1,47-70.6
	s64.1,14.5,70.6,47c3.1,15.6-0.1,31.8-8.9,45c-2.9,4.4-6.5,8.4-10.5,11.9l0.2-0.1c0.9-0.2,1.9-0.3,2.9-0.4c3.4-3.2,6.3-6.8,8.9-10.6
	C248.4,148.8,251.9,135.1,250.8,121.3z"/>
<path class="st0" d="M172,183.8c-1.1,0.3-2.1,0.5-3,0.8c2.9,1,5.9,1.8,9,2.4c2.1-0.3,4.2-0.6,5.9-0.8h0.3
	C180.1,185.8,176,185,172,183.8L172,183.8z"/>
<path class="st0" d="M164.9,183l2.5-0.8h-0.1C166.5,182.5,165.7,182.7,164.9,183z"/>
<path class="st0" d="M144.5,168.7l2.1-0.3h-0.2L144.5,168.7z"/>
<g>
	<path class="st1" d="M50.5,189.1c2.7-4.7,5.2-9.1,13.9-16.8c12.2-10.7,20.7-16.3,42.1-23.1c6.7-2.1,11.8-3.8,15.8-5.2l0.2-0.1
		c-0.2-0.9-0.4-1.8-0.6-2.7l-0.2,0.1c-4,1.4-9.1,3.1-16,5.3c-21.9,7-30.6,12.7-43.1,23.7c-9,8-11.8,12.8-14.4,17.4
		c-2.7,5.1-6.2,9.6-10.5,13.5c-4.7,4.5-20.5,13.9-37.7,23.6v3.1c17.9-10,34.5-19.9,39.6-24.8C44,199.2,47.6,194.4,50.5,189.1z"/>
	<path class="st1" d="M241.8,176.6c-0.1-1.2-0.7-2.4-1.5-3.3l-0.1-0.1c-0.4-0.4-0.8-0.7-1.2-1l-0.1-0.1c-1.2-0.7-2.5-1.1-3.9-1.3
		c-1-0.1-1.9-0.1-2.9,0h-0.2c-1,0.1-1.9,0.3-2.9,0.4l-0.2,0.1c-5.9,1.4-11.7,3.5-17.1,6.3c-8.7,2.4-19.3,6.1-23.2,8.1
		c-1.5,0-2.9,0.1-4.4,0.3H184c-1.8,0.2-3.8,0.5-5.9,0.8h-0.1l-0.3,0c-4,0.6-8,1.2-11.4,1.4c-1,0.1-2,0.1-3,0h-0.2
		c-0.8,0-1.6-0.1-2.4-0.5c0.1-0.1,0.2-0.3,0.4-0.4l0.1-0.1c0.8-0.6,2.9-1.6,7.9-3h0.1c0.9-0.2,1.9-0.5,3-0.8h0.1l2.4-0.6
		c7.2-1.6,14.8-2.8,16.8-3.1c4.2-0.6,18.9-6.7,26.8-10l2.8-1.1c3.6-1.5,7.3-4.9,7-8.4c-0.1-1.3-0.9-2.5-2-3.3
		c-0.1,0-0.1-0.1-0.2-0.1c-1-0.6-2.2-1.1-3.4-1.3c-1.9-0.4-3.7-0.5-5.6-0.5h-0.4c-3.1,0.1-6.2,0.5-9.2,1.1
		c-2.8,0.5-11.4,2.3-14.2,2.8h-0.2c-1,0.2-1.8,0.3-2.5,0.4c-3.7,0.5-4.8,0.1-9.9,0.6c-3.6,0.3-7.2,0.8-10.7,1.5l-0.5,0.1l-1.5,0.3
		c-1.4,0.3-2.8,0.6-4.3,0.9c-0.6,0.2-2.5,0.5-4.5,0.9h-0.2c-2.6,0.5-5.4,0.9-6.5,1c-2.6,0.3-5.2,0.6-7.8,0.9h-0.1l-1.8,0.3h-0.2
		c-2.2,0.3-4.3,0.6-6.5,1h-0.2l-1.7,0.3h-0.2c-2.5,0.4-5,0.8-7.5,1.3l-2.8,0.5c-2.8,0.5-3.8,0.2-4.1,0.1c0.2-0.9,2.6-3.3,5.8-4.8
		c1.5-0.7,3.3-1.4,5.3-2l0.2-0.1c-0.5-0.8-1-1.6-1.4-2.4l-0.2,0c-1.9,0.7-3.5,1.3-5,2c-3.5,1.6-8.2,5.3-7.3,8.1
		c0.8,2.5,4.5,2.2,7.2,1.7l2.8-0.5c2.7-0.5,5.8-1,9-1.5h0.2l1.8-0.3h0.2c2.2-0.3,4.4-0.7,6.7-1h0.2l1.9-0.3h0.2
		c4.1-0.5,8.3-0.9,12.2-1.1c0.1,0,0.2,0,0.3,0c1-0.3,2-0.5,2.9-0.7l0.5-0.1c1.3-0.3,2.5-0.5,3.7-0.8c3-0.6,5.9-1,8.6-1.4
		c4.9-0.6,9.9-0.9,14.9-0.9c0.1,0,0.3,0,0.4,0c0.2,0,12.5-3.7,22.6-4.8l0.5-0.1c2.9-0.4,5.8-0.3,8.6,0.1c0.7,0.1,1.4,0.4,2.1,0.7
		l0.2,0.1c0.6,0.3,1,0.8,1.1,1.5c0.2,1.8-2.3,4.4-5.3,5.6l-2.8,1.1c-7.2,3-22.3,9.2-26.1,9.8c-2.3,0.3-10.4,1.6-17.9,3.4
		c-2.1,0.5-4,1-5.6,1.4h-0.1c-0.9,0.3-1.7,0.5-2.5,0.8h-0.1c-3.8,1.3-5.6,2.3-6.4,3.3c0,0-0.1,0-0.1,0.1c-0.3,0.4-0.6,0.9-0.6,1.5
		v0.3c0,0.8,0.4,1.5,1,2c1.1,1,3.3,1.3,6.4,1.2h0.2c1.2,0,2.6-0.2,4.1-0.3h0.1c2.5-0.3,5.3-0.7,8.4-1.2c4.5-0.7,8.8-1.3,10.8-1.2
		c0.3,0,0.5,0,0.8-0.2l0.6-0.3l0.1-0.1c1-0.5,2.5-1.1,4.4-1.9l0.2-0.1c5.8-2.2,11.8-4.2,17.8-5.8c0.1,0,0.2-0.1,0.3-0.1
		c3.3-1.7,6.7-3.2,10.3-4.3l0.2-0.1c1.5-0.5,3-1,4.5-1.3l0.3-0.1c2.1-0.6,4.2-0.9,6.4-0.8c0.8,0.1,1.6,0.3,2.3,0.7h0.1
		c0.5,0.2,0.9,0.5,1.3,0.9l0.1,0.1c0.4,0.4,0.7,1,0.7,1.6c0.2,2.2-2.3,5.6-8.4,7.8c-4.6,1.6-13.5,5.2-22.2,8.6
		c-6.7,2.7-13,5.2-16.5,6.5c-5.1,1.9-29.3,5.4-29.5,5.4c-0.7,0.1-1.3,0.8-1.2,1.5c0,0,0,0,0,0c0,0,0,0.1,0,0.1
		c0.2,0.7,0.8,1.1,1.5,1c1-0.1,24.7-3.6,30.1-5.6c3.6-1.3,9.9-3.9,16.6-6.5c5.8-2.3,11.6-4.6,16.3-6.4c1.4-0.1,5.2-0.1,6.8,1.5
		c0.6,0.5,0.8,1.3,0.8,2.1c-0.1,2.6-3.1,4.3-10.4,8.1l-3.3,1.7c-4.1,2.2-14.6,5.9-22.4,8.6c-2.8,1-5.2,1.8-6.8,2.4
		c-3.9,1.5-11,3.4-17.3,5.1c-4.2,1.1-7.9,2.1-9.8,2.8c-0.7,0.3-1.1,1-0.8,1.7c0.2,0.6,0.8,1,1.5,0.9c3.5-0.5,8.1-0.1,12.9,0.4l3,0.3
		c0.2,0,0.4,0,0.6-0.1c7.1-2.1,14.3-3.5,21.7-4.1c0.2,0,0.4-0.1,0.5-0.2c4.2-1.8,8.7-3,13.3-3.6c4.1-0.3,6.6,0.8,6.9,2
		c0.3,1-0.9,2.8-4.2,4.4c-6.3,3-27.4,9.2-36.5,11.5c-1.6,0.4-14.2,2.2-25.4,3.7l-12,1.7c-5.6,0.8-12.7,1.6-20.3,2.4
		c-17.6,2-35.7,4-42,6.6C75.2,252.6,35,281.4,0,307.1v3.4c35.3-25.8,76.4-55.4,83.7-58.5c5.9-2.5,24.7-4.6,41.3-6.4
		c7.6-0.8,14.8-1.6,20.4-2.4l12-1.7c12.3-1.7,23.9-3.3,25.7-3.8c7.4-1.9,30.1-8.4,37-11.7c4.3-2,6.4-4.8,5.7-7.5
		c-0.8-2.9-4.5-4.5-9.8-4c-4.8,0.6-9.6,1.9-14.1,3.8c-7.4,0.6-14.7,2-21.8,4.1l-2.7-0.3l-3.8-0.4l0.5-0.1c6.3-1.7,13.5-3.6,17.5-5.1
		c1.6-0.6,4-1.4,6.7-2.4c7.8-2.7,18.5-6.5,22.8-8.8l3.3-1.7c7.8-4.1,11.7-6.1,11.9-10.4c0.1-1.6-0.5-3.1-1.6-4.2
		c-0.9-0.8-1.9-1.4-3-1.7l0.1-0.1C238.2,184.9,242.2,180.8,241.8,176.6z"/>
</g>
</svg>
