<svg id="Layer_1" data-name="Layer 1" xmlns="http://www.w3.org/2000/svg" viewBox="0 0 353 334"><defs><style>.cls-1{fill:#fdc23e;}.cls-2{fill:#707070;}</style></defs><title>Hands</title><path class="cls-1" d="M246.08,39.75h.06a1.8,1.8,0,0,0,2-1.53L250.83,20A1.81,1.81,0,0,0,249,18a1.88,1.88,0,0,0-1.78,1.68l-2.65,18.1A1.78,1.78,0,0,0,246.08,39.75Z"/><path class="cls-1" d="M250,12.47A1.79,1.79,0,0,0,252,11l1.14-7.75a1.79,1.79,0,1,0-3.54-.52l-1.15,7.75A1.81,1.81,0,0,0,250,12.47Z"/><path class="cls-1" d="M214,13.47a1.78,1.78,0,0,0-1.39,2.12l4.92,24.55a1.8,1.8,0,0,0,1.45,1.4,1.68,1.68,0,0,0,.67,0A1.79,1.79,0,0,0,221,39.41l-4.93-24.55A1.79,1.79,0,0,0,214,13.47Z"/><path class="cls-1" d="M337.78,37.59a1.8,1.8,0,0,0-2.51-.34L300.14,63.84a1.8,1.8,0,0,0-.35,2.51,1.82,1.82,0,0,0,1.13.68,1.75,1.75,0,0,0,1.38-.34L337.43,40.1A1.8,1.8,0,0,0,337.78,37.59Z"/><path class="cls-1" d="M351.66,82.51a1.79,1.79,0,0,0-2.14-1.35l-7,1.56a1.8,1.8,0,0,0-1.36,2.14,1.82,1.82,0,0,0,1.45,1.38,2.07,2.07,0,0,0,.7,0l7-1.57A1.78,1.78,0,0,0,351.66,82.51Z"/><path class="cls-1" d="M332.39,84.32,311,87.7a1.79,1.79,0,0,0,0,3.54,1.88,1.88,0,0,0,.58,0L333,87.86a1.79,1.79,0,0,0-.56-3.54Z"/><path class="cls-1" d="M191.52,51.13a1.85,1.85,0,0,0,.89.43,1.79,1.79,0,0,0,1.49-3.11l-7-6.23a1.79,1.79,0,0,0-2.38,2.68Z"/><path class="cls-1" d="M170.56,32.55a1.73,1.73,0,0,0,.91.44,1.77,1.77,0,0,0,1.62-.55,1.79,1.79,0,0,0-.11-2.53l-16.36-15a1.79,1.79,0,0,0-2.43,2.64Z"/><path class="cls-1" d="M172.25,79.9A1.79,1.79,0,0,0,171,77.69L134.51,67.28a1.79,1.79,0,0,0-1,3.45L170,81.14l.19,0A1.79,1.79,0,0,0,172.25,79.9Z"/><path class="cls-1" d="M162.28,108l-26.6,2.66a1.79,1.79,0,0,0-.13,3.54,1.6,1.6,0,0,0,.49,0l26.6-2.66a1.79,1.79,0,0,0-.36-3.56Z"/><path class="cls-1" d="M332.79,113.55l-17.42-3a1.79,1.79,0,1,0-.61,3.53l17.42,3a1.79,1.79,0,0,0,.61-3.53Z"/><path class="cls-1" d="M278.15,48.59a1.76,1.76,0,0,0,.49.16,1.8,1.8,0,0,0,1.91-1l12.31-25a1.79,1.79,0,0,0-3.22-1.58l-12.31,25A1.8,1.8,0,0,0,278.15,48.59Z"/><path class="cls-1" d="M341.26,114a2.76,2.76,0,1,0,2.25,3.19A2.76,2.76,0,0,0,341.26,114Z"/><path class="cls-1" d="M294.91,17a2.76,2.76,0,1,0-2.25-3.19A2.77,2.77,0,0,0,294.91,17Z"/><path class="cls-1" d="M127.11,111a2.75,2.75,0,1,0,2.25,3.18A2.75,2.75,0,0,0,127.11,111Z"/><path class="cls-1" d="M211.9,6.42a2.76,2.76,0,1,0-2.25-3.19A2.76,2.76,0,0,0,211.9,6.42Z"/><path class="cls-1" d="M177.93,39.6a2.76,2.76,0,1,0-2.25-3.19A2.75,2.75,0,0,0,177.93,39.6Z"/><path class="cls-1" d="M283.26,133.66c-.06-.76-1.46-18.13-1.54-19.08a13.24,13.24,0,0,0,0-1.51A16.9,16.9,0,0,0,252,103.41l-.89,1-1-.87a16.89,16.89,0,0,0-27.31,9.21l-.23,1-.68,0-7.32.6.29-1.74c.13-.79.31-1.55.51-2.31a24.71,24.71,0,0,1,32.3-16.83l.21.1a3.87,3.87,0,0,0,1,.4,4,4,0,0,0,1.28.12h0a4,4,0,0,0,1.64-7.52,4.35,4.35,0,0,0-1-.38l-.15,0a32.67,32.67,0,0,0-44,27.72l-.11,1.15-8,.65.09-1.57A39.8,39.8,0,0,1,201,102.77,40.11,40.11,0,0,1,269.3,90.35l.1.13a4.57,4.57,0,0,0,.47.58,5.35,5.35,0,0,0,.74.58.34.34,0,0,0,.12.06l1.06.43.12,0a3.85,3.85,0,0,0,1.17.07,4.06,4.06,0,0,0,3.71-4.37,4.14,4.14,0,0,0-.64-1.89,4.06,4.06,0,0,0-.56-.66l-.13-.13a48.09,48.09,0,0,0-84.55,35.08c.1,1.27.27,2.52.47,3.76.15.91.32,1.8.51,2.7a47.86,47.86,0,0,0,6.42,15.53c.48.76,1,1.51,1.53,2.24a48.08,48.08,0,0,0,9,9.46c2-.37,3.85-.72,4.49-.87,1.41-.31,2.83-.6,4.25-.87v0a4,4,0,0,0-1.21-2.55,3.49,3.49,0,0,0-.69-.54.27.27,0,0,0-.12-.06l-.23-.1-.14-.1a40.45,40.45,0,0,1-9.19-9.28c-.53-.75-1-1.51-1.5-2.29a40.09,40.09,0,0,1-5-12.81c0-.22-.1-.44-.14-.66l-.28-1.5,7.76-.64.26,3.13.39,4.75s0,0,0,0a4,4,0,0,0,.93,2A4.05,4.05,0,0,0,211.6,133h.24a4.08,4.08,0,0,0,3.74-4.4,4.14,4.14,0,0,0-.13-.76l-.57-6.84,7.75-.64,2,24v.06a4.12,4.12,0,0,0,2.41,3.07,4.17,4.17,0,0,0,4-.37,3.93,3.93,0,0,0,1.72-3,4.4,4.4,0,0,0-.13-1.5l0-.12-2-24.18,0-.28a1.15,1.15,0,0,1,0-.18v-.23a2.78,2.78,0,0,0,0-.49,2.18,2.18,0,0,0-.08-.5l0-.19v-.2a8.77,8.77,0,0,1,17.47-.87v.34s0,.05,0,.07l0,.19,0,.17,0,.15,1,11.76,1,12.52v.09a4.5,4.5,0,0,0,0,.52,4.1,4.1,0,0,0,4.42,3.73h.05a4.11,4.11,0,0,0,3.76-4.1c0-.1,0-.2,0-.3,0-.27-.09-.54-.14-.78l0-.11-.57-7.07-1.3-16c0-.32,0-.64,0-1v-.14c0-.14,0-.26,0-.37a2.91,2.91,0,0,0,0-.31l0-.3a1,1,0,0,1,0-.2v-.2a8.76,8.76,0,0,1,17.45-.78v.07a2,2,0,0,1,0,.25v.06a.11.11,0,0,0,0,.05,1.62,1.62,0,0,0,0,.18l.09.5,1.53,18.83-.16.33a39.83,39.83,0,0,1-8.61,11.78h.38a26.18,26.18,0,0,1,5.62.49,9.66,9.66,0,0,1,3.39,1.31c.92-1.11,1.81-2.26,2.64-3.46a50.15,50.15,0,0,0,3.56-6C282.37,136.78,283.33,134.53,283.26,133.66Z"/><path class="cls-1" d="M233.7,47.32a69.15,69.15,0,0,0-61.95,84c.2.89.41,1.77.64,2.65a69.27,69.27,0,0,0,6.53,16.16c.45.8.92,1.59,1.4,2.38,1.07,1.73,2.21,3.42,3.42,5.05l1.7-.28.19,0c-1.3-1.71-2.53-3.48-3.67-5.31-.49-.78-1-1.58-1.42-2.38A66.73,66.73,0,0,1,174,133.37c-.23-.87-.44-1.76-.63-2.65a66.89,66.89,0,0,1,3.75-40.62,67.5,67.5,0,1,1,111.67,72.14l.12.07a6.23,6.23,0,0,1,1.23,1,69.18,69.18,0,0,0-56.43-116Z"/><path class="cls-1" d="M207.76,177.9l.65-1.57a.3.3,0,0,0-.08.08A2.47,2.47,0,0,0,207.76,177.9Z"/><path class="cls-1" d="M185.63,160l2-.31-.19,0Z"/><path class="cls-1" d="M300.82,111.3a61.7,61.7,0,0,0-123,10,63.48,63.48,0,0,0,1.07,7.37c.18.89.38,1.79.6,2.67a60.92,60.92,0,0,0,6.64,16.2c.47.8,1,1.59,1.46,2.36a61.78,61.78,0,0,0,4.72,6.29l1.83-.25.15,0a59.59,59.59,0,0,1-5.07-6.63q-.76-1.15-1.47-2.34a59.5,59.5,0,0,1-6.67-16.21c-.22-.88-.41-1.78-.59-2.68A60,60,0,1,1,289.27,149.5a60.71,60.71,0,0,1-10.46,11.94l.19-.05a28.56,28.56,0,0,1,2.87-.45,62.12,62.12,0,0,0,8.9-10.64A61.41,61.41,0,0,0,300.82,111.3Z"/><path class="cls-1" d="M222,173.8c-1.09.26-2.07.52-3,.76a59.94,59.94,0,0,0,9,2.4c2.15-.32,4.17-.62,5.93-.84l.25,0a60.13,60.13,0,0,1-12.12-2.32Z"/><path class="cls-1" d="M214.92,173l2.54-.77-.08,0C216.48,172.47,215.67,172.72,214.92,173Z"/><path class="cls-1" d="M194.5,158.66l2.09-.27-.16,0Z"/><path class="cls-2" d="M100.47,179.1c2.67-4.68,5.19-9.1,13.86-16.75C126.5,151.61,135,146,156.44,139.22c6.74-2.14,11.76-3.82,15.77-5.22l.18-.06c-.23-.88-.44-1.76-.64-2.65l-.18.06c-4,1.41-9.09,3.11-15.95,5.28-21.87,7-30.62,12.68-43.08,23.69-9,8-11.76,12.77-14.42,17.43a51.14,51.14,0,0,1-10.46,13.54C75.79,202.66-4.65,244.23-5.46,244.65A1.34,1.34,0,0,0-6,246.47a1.35,1.35,0,0,0,1.33.73,1.2,1.2,0,0,0,.49-.14c.43-.22,2.06-1.06,4.6-2.39,17.53-9.13,78.55-41.26,89.16-51.43A54,54,0,0,0,100.47,179.1Z"/><path class="cls-2" d="M291.79,166.65a5.35,5.35,0,0,0-1.55-3.29l-.11-.09a6.23,6.23,0,0,0-1.23-1l-.12-.07a10.73,10.73,0,0,0-3.9-1.32,12.36,12.36,0,0,0-2.86,0l-.15,0a28.56,28.56,0,0,0-2.87.45l-.19.05a72.51,72.51,0,0,0-17.06,6.25c-8.73,2.36-19.28,6.06-23.16,8.13a29,29,0,0,0-4.39.28l-.25,0c-1.76.22-3.78.52-5.93.84l-.14,0-.33.05c-4,.6-8.05,1.22-11.41,1.44a27.39,27.39,0,0,1-3,.05h-.21a4.91,4.91,0,0,1-2.36-.49,1.88,1.88,0,0,1,.4-.37l.09-.06c.83-.59,2.89-1.62,7.93-3l.1,0c.89-.24,1.87-.5,3-.76l.08,0,2.43-.58c7.2-1.63,14.76-2.85,16.84-3.15,4.22-.6,18.92-6.69,26.81-10l2.76-1.13c3.64-1.49,7.33-4.93,7-8.38a4.45,4.45,0,0,0-2-3.25,2.26,2.26,0,0,1-.2-.13,9.66,9.66,0,0,0-3.39-1.31,26.18,26.18,0,0,0-5.62-.49h-.38a60.12,60.12,0,0,0-9.18,1.06c-2.84.52-11.37,2.3-14.21,2.85l-.21,0c-1,.19-1.8.33-2.52.43-3.68.51-4.83.1-9.93.59q-5.38.52-10.71,1.46l-.52.09-1.48.29c-1.42.27-2.84.56-4.25.87-.64.15-2.47.5-4.49.87l-.24,0c-2.56.46-5.36.94-6.51,1.05-2.61.25-5.21.56-7.81.9l-.15,0-1.83.25-.19,0q-3.25.47-6.5,1l-.19,0-1.7.28-.18,0c-2.51.41-5,.84-7.52,1.27l-2.81.47c-2.8.48-3.82.22-4.12.1.24-.9,2.61-3.33,5.79-4.8,1.5-.7,3.27-1.36,5.26-2.05l.16-.06c-.48-.79-.95-1.58-1.4-2.38l-.16.05c-1.85.66-3.53,1.29-5,2-3.45,1.6-8.15,5.3-7.27,8.14.77,2.48,4.48,2.16,7.19,1.7l2.82-.48c2.72-.47,5.75-1,8.95-1.5l.18,0,1.76-.28.19,0c2.2-.34,4.45-.67,6.73-1l.19,0,1.93-.25.16,0c4.1-.51,8.25-.92,12.19-1.13a1.45,1.45,0,0,0,.29,0c1-.27,2-.51,2.92-.74l.51-.11c1.25-.29,2.48-.55,3.69-.79,3-.6,5.91-1.05,8.61-1.38a122.09,122.09,0,0,1,14.88-.89,1,1,0,0,0,.39-.05c.17,0,12.5-3.7,22.64-4.77l.5-.06a30.57,30.57,0,0,1,8.6.12,7.69,7.69,0,0,1,2.11.73l.21.1a2,2,0,0,1,1.11,1.45c.16,1.76-2.34,4.39-5.35,5.62l-2.77,1.14c-7.23,3-22.27,9.22-26.15,9.77-2.26.33-10.4,1.64-17.91,3.39-2.15.5-4,1-5.6,1.44l-.08,0c-.9.26-1.71.51-2.46.75l-.08,0c-3.78,1.26-5.6,2.35-6.43,3.34a.3.3,0,0,0-.08.08,2.47,2.47,0,0,0-.57,1.49V178a2.64,2.64,0,0,0,1,2c1.15,1,3.33,1.28,6.4,1.17h.16c1.24-.05,2.6-.17,4.12-.33l.13,0c2.47-.28,5.28-.68,8.42-1.16,4.55-.68,8.84-1.33,10.83-1.17a1.25,1.25,0,0,0,.78-.17l.61-.32.12-.06c1-.51,2.54-1.15,4.36-1.87l.18-.06a185.86,185.86,0,0,1,17.78-5.79,1.34,1.34,0,0,0,.3-.12,67.41,67.41,0,0,1,10.25-4.3l.21-.08c1.53-.5,3-1,4.45-1.31l.28-.07a19,19,0,0,1,6.37-.79,9.28,9.28,0,0,1,2.34.67l.14,0a4.42,4.42,0,0,1,1.3.91l.1.08a2.67,2.67,0,0,1,.74,1.6c.22,2.24-2.32,5.64-8.41,7.81-4.64,1.65-13.55,5.21-22.16,8.64-6.66,2.66-12.95,5.16-16.52,6.49-5.13,1.91-29.3,5.39-29.54,5.43a1.35,1.35,0,0,0-1.15,1.53s0,.07,0,.11a1.34,1.34,0,0,0,1.51,1c1-.14,24.71-3.55,30.11-5.57,3.59-1.34,9.9-3.85,16.57-6.51,5.75-2.29,11.62-4.63,16.26-6.42,1.42-.11,5.2-.05,6.83,1.51a2.54,2.54,0,0,1,.76,2.09c-.11,2.61-3.1,4.28-10.44,8.14l-3.26,1.72c-4.07,2.17-14.64,5.88-22.36,8.58-2.77,1-5.16,1.81-6.78,2.41-3.94,1.46-11,3.37-17.28,5.06-4.23,1.14-7.89,2.13-9.84,2.78a1.36,1.36,0,0,0,.63,2.63c3.48-.51,8.07-.06,12.93.4l3,.29a1.26,1.26,0,0,0,.58-.08,109,109,0,0,1,21.65-4.11,1.29,1.29,0,0,0,.54-.15,50.25,50.25,0,0,1,13.29-3.63c4.1-.32,6.59.79,6.92,2.05.28,1-.91,2.8-4.2,4.38-6.32,3-27.44,9.17-36.52,11.48-1.62.42-14.23,2.17-25.36,3.71l-12,1.67c-5.58.79-12.73,1.58-20.29,2.42-17.56,2-35.73,4-42,6.64C119.18,245.13-.25,334.16-4.73,337.52a1.36,1.36,0,0,0-.27,1.9,1.34,1.34,0,0,0,1.22.53,1.36,1.36,0,0,0,.68-.26c1.09-.82,123.64-92.19,136.78-97.75,5.94-2.5,24.71-4.59,41.27-6.43,7.58-.84,14.75-1.64,20.37-2.44l12-1.66c12.29-1.71,23.89-3.32,25.66-3.77,7.44-1.9,30.09-8.36,37-11.67,4.26-2,6.37-4.84,5.65-7.52-.77-2.91-4.51-4.46-9.75-4a53.85,53.85,0,0,0-14.05,3.79A113,113,0,0,0,230,212.34l-2.72-.26-3.81-.35.54-.14c6.31-1.7,13.46-3.63,17.51-5.14,1.6-.59,4-1.42,6.73-2.39,7.81-2.73,18.5-6.48,22.75-8.75l3.25-1.71c7.78-4.1,11.69-6.15,11.88-10.42a5.24,5.24,0,0,0-1.6-4.17,7.57,7.57,0,0,0-3-1.68l.15-.05C288.18,174.93,292.19,170.76,291.79,166.65Z"/></svg>