<?xml version="1.0" encoding="utf-8"?>
<!-- Generator: Adobe Illustrator 22.1.0, SVG Export Plug-In . SVG Version: 6.00 Build 0)  -->
<svg version="1.1" id="Layer_1" xmlns="http://www.w3.org/2000/svg" xmlns:xlink="http://www.w3.org/1999/xlink" x="0px" y="0px"
	 viewBox="0 0 353 334" style="enable-background:new 0 0 353 334;" xml:space="preserve">
<style type="text/css">
	.st0{fill:none;}
	.st1{fill:#9CAFFF;}
	.st2{fill:#F38D9F;}
</style>
<g>
	<path class="st0" d="M157.7,205.5c-0.5-2.8-1.1-6-1.5-9.3c-14.3,1.5-41.1,4.1-60.9,6.1l-22.8,2.3c-2.1,0.2-7.8,1.1-9.8,3.8
		c-0.6,0.8-0.8,1.8-0.6,2.8c0.8,4.2,13.5,5.7,22.9,5.5c1.9-4.4,10.7-6.5,34.9-8.5C142.3,206.1,153.9,205.6,157.7,205.5z"/>
	<path class="st0" d="M302.5,153.5c-37.2-25.1-55.1-28.6-80.2-29.9c-40.3-2-61.4-2.5-64.3,7.1c-0.4,1.2-0.1,2.6,0.6,3.6
		c5.5,8.1,34.1,12.8,44.6,13.9c0.7,0.1,1.2,0.5,1.5,1.1c0.4,0.9,0,2-0.9,2.4c-0.2,0.1-16.2,6.9-43.8,13.1c-4.1,0.9-9.3,2.1-14.9,3.3
		c-17.6,3.8-41.8,9.1-51.6,12.3c-2.5,0.8-4.1,2.1-4.9,3.7c-0.6,1.4-0.7,2.9-0.4,4.3c10.7-1.2,53.5-9.3,67.2-11.9
		c0.1-0.8,0.2-1.6,0.4-2.3c0.2-1,1.2-1.6,2.1-1.4c1,0.2,1.6,1.2,1.4,2.1c-1.7,8,0.5,25.6,2.9,34.2c0.2,0.9-0.2,1.8-1.1,2.1l-0.2,0
		c0,0,0,0,0,0c-1,0.3-1.9-0.3-2.2-1.3c-0.1-0.3-0.2-0.5-0.2-0.8c-2.9,0.1-14.3,0.5-38.4,2.6c-14.5,1.2-31.2,3.1-32,6.7
		c0,0.1,0,0.2,0,0.3c0.1,0.6,0.4,1.2,0.8,1.6c1.8,1.8,7.4,4.9,25.2,4.2c24.8-0.9,39.4-0.7,61.3-0.4l20,0.2
		c9.3,0.1,18.5-0.8,27.6-2.5c13.1-2.2,45.6-4.3,60.7,3.7c14.4,7.6,47.7,51.4,69.1,80.9V205.2C319.8,175.4,308,157.2,302.5,153.5z"/>
	<path class="st0" d="M94.9,198.8c19.8-2,46.6-4.7,60.9-6.1c-0.5-4.2-0.6-8.4-0.6-12.6c-12.8,2.5-60.2,11.5-68.2,12
		c-2.3,0.1-8.9,0.8-12.1,3.4c-1.7,1.3-2.3,3.6-1.6,5.5C78.1,200.5,85.8,199.7,94.9,198.8z"/>
	<path class="st1" d="M283.9,225.5c-15.1-8-47.6-5.9-60.7-3.7c-9.1,1.7-18.4,2.5-27.6,2.5l-20-0.2c-22-0.3-36.5-0.5-61.3,0.4
		c-17.8,0.6-23.4-2.4-25.2-4.2c-0.5-0.4-0.8-1-0.8-1.6c0-0.1,0-0.2,0-0.3c0.8-3.6,17.5-5.5,32-6.7c24.1-2,35.5-2.5,38.4-2.6
		c0,0.3,0.1,0.6,0.2,0.8c0.3,1,1.2,1.5,2.2,1.3c0,0,0,0,0,0l0.2,0c0.9-0.3,1.3-1.3,1.1-2.1c-2.3-8.5-4.6-26.1-2.9-34.2
		c0.2-1-0.4-1.9-1.4-2.1c-1-0.2-1.9,0.4-2.1,1.4c-0.1,0.7-0.3,1.5-0.4,2.3c-13.7,2.7-56.6,10.8-67.2,11.9c-0.3-1.4-0.2-2.9,0.4-4.3
		c0.7-1.7,2.4-2.9,4.9-3.7c9.8-3.2,33.9-8.5,51.6-12.3c5.6-1.2,10.8-2.4,14.9-3.3c27.6-6.2,43.7-13.1,43.8-13.1
		c0.9-0.4,1.3-1.4,0.9-2.4c-0.3-0.6-0.8-1-1.5-1.1c-10.6-1.1-39.2-5.8-44.6-13.9c-0.8-1-1-2.4-0.6-3.6c2.8-9.6,24-9,64.3-7.1
		c25.2,1.2,43,4.8,80.2,29.9c5.6,3.7,17.4,21.9,50.5,51.7v-5.5c-25.1-23.8-41.3-44.2-48.5-49.1c-34.3-23.1-52.1-29-82-30.5
		c-44.5-2.2-64.3-2.6-67.9,9.6c-0.7,2.2-0.3,4.7,1.1,6.6c5.7,8.5,28.2,12.8,40.1,14.6c-12,4.2-24.2,7.7-36.6,10.4
		c-4,0.9-9.3,2.1-14.9,3.3c-18.7,4.1-42,9.1-51.9,12.4c-3.5,1.1-5.8,3-7,5.7c-0.8,1.9-1.1,4-0.7,6c-3,0.3-8.5,1.3-11.9,4
		c-2.7,2.1-3.9,5.5-3,8.8c-2.9,0.5-7.6,1.7-10,4.8c-1.2,1.6-1.7,3.6-1.3,5.6c1.5,8.1,19.7,8.5,26.3,8.4c0.3,0.8,0.7,1.5,1.3,2.2
		c3.7,4.3,13.2,6.2,28.3,5.7c24.8-0.9,39.2-0.7,61.2-0.4c6,0.1,12.6,0.2,20,0.3c9.5,0,18.9-0.8,28.2-2.6c12.8-2.1,44.9-3.8,58.4,3.3
		c14.9,7.9,49.8,54.4,70.8,83.6v-5.9C331.5,276.9,298.2,233.1,283.9,225.5z M75,195.4c3.2-2.5,9.8-3.3,12.1-3.4
		c8-0.5,55.4-9.5,68.2-12c-0.1,4.2,0.1,8.4,0.6,12.6c-14.3,1.5-41.1,4.1-60.9,6.1c-9.1,0.9-16.8,1.7-21.5,2.2
		C72.6,199,73.3,196.7,75,195.4z M84.9,216.6c-9.5,0.2-22.2-1.3-22.9-5.5c-0.2-1,0-2,0.6-2.8c2-2.6,7.7-3.6,9.8-3.8l22.8-2.3
		c19.8-2,46.6-4.7,60.9-6.1c0.4,3.3,1,6.5,1.5,9.3c-3.8,0.1-15.4,0.7-37.9,2.6C95.7,210.1,86.8,212.2,84.9,216.6z"/>
</g>
<title>Hands</title>
<path class="st2" d="M151.3,168.6c0,0-52.5-6.3-54.1-39.1c-0.9-18.2,22.8-25.3,36-9.3c0-21.7,21.8-31,33.1-16.6
	C186.6,129.3,151.3,168.6,151.3,168.6z"/>
<path class="st2" d="M119,86L119,86c-1.4,0.4-2.7-0.3-3.1-1.5l-14.9-42.1c-0.5-1.3,0.2-2.7,1.5-3.1c1.3-0.5,2.7,0.2,3.1,1.5
	c0,0,0,0,0,0.1l14.9,42.1C120.9,84.1,120.3,85.5,119,86C119,86,119,86,119,86z"/>
<path class="st2" d="M99.8,32.2c-1.3,0.4-2.7-0.2-3.1-1.5l-3.5-10.1c-0.4-1.3,0.2-2.7,1.5-3.1c1.3-0.4,2.7,0.2,3.1,1.5l3.5,10.1
	C101.8,30.4,101.1,31.7,99.8,32.2C99.8,32.2,99.8,32.2,99.8,32.2z"/>
<path class="st2" d="M95.9,96.6c-0.2,0.2-0.5,0.3-0.8,0.4c-1,0.3-2,0-2.6-0.8L60.3,56.7c-0.9-1-0.7-2.6,0.4-3.5
	c1-0.9,2.6-0.7,3.5,0.4l32.1,39.5C97.1,94.2,96.9,95.7,95.9,96.6C95.9,96.6,95.9,96.6,95.9,96.6z"/>
<path class="st2" d="M167.9,78.7c-0.6,1.2-2,1.7-3.3,1.2c0,0,0,0,0,0c-1.2-0.6-1.7-2-1.2-3.3c0,0,0,0,0,0l25.9-54.4
	c0.7-1.2,2.2-1.6,3.4-0.9c1,0.6,1.5,1.9,1,3L167.9,78.7z"/>
<path class="st2" d="M230.1,57l-7.5,6.3c-0.2,0.2-0.5,0.4-0.8,0.5c-1.3,0.4-2.7-0.3-3.1-1.6c-0.3-0.9,0-2,0.8-2.6l7.5-6.3
	c1-0.9,2.6-0.7,3.5,0.3S231.1,56.1,230.1,57z"/>
<path class="st2" d="M211,71.8l-23.8,17.5c-0.2,0.2-0.5,0.3-0.7,0.4c-1.3,0.4-2.7-0.3-3.1-1.6c-0.3-1,0-2.1,0.9-2.7l23.8-17.5
	c1.1-0.8,2.6-0.7,3.4,0.4c0.8,1.1,0.7,2.6-0.4,3.4C211.1,71.7,211,71.8,211,71.8z"/>
<path class="st2" d="M80.5,108.2c1.3,0.3,2.1,1.7,1.8,3c-0.2,0.8-0.8,1.5-1.6,1.7c-0.4,0.1-0.9,0.2-1.3,0l-12.5-3.2
	c-1.3-0.3-2.1-1.7-1.8-3c0.3-1.3,1.7-2.1,3-1.8L80.5,108.2z"/>
<path class="st2" d="M43.5,103.6c-0.5,0.1-0.9,0.1-1.4,0l-29.4-8c-1.3-0.4-2-1.8-1.5-3.1c0.4-1.2,1.6-1.8,2.8-1.6l29.4,8
	c1.3,0.4,2.1,1.7,1.7,3C44.9,102.7,44.3,103.3,43.5,103.6z"/>
<path class="st2" d="M77.3,130c0.2,1.2-0.5,2.4-1.7,2.8l-0.3,0l-50.9,10.3c-1.3,0.2-2.6-0.7-2.8-2.1c-0.2-1.2,0.6-2.4,1.8-2.7
	l50.9-10.3C75.7,127.8,77,128.7,77.3,130C77.3,130,77.3,130,77.3,130z"/>
<path class="st2" d="M80.3,158.4c1.1-0.7,2.7-0.4,3.4,0.7c0.7,1.1,0.4,2.7-0.7,3.4l-30.7,20c-0.2,0.1-0.4,0.2-0.6,0.3
	c-1.3,0.4-2.7-0.3-3.1-1.6c-0.3-1.1,0.1-2.2,1-2.8L80.3,158.4z"/>
<path class="st2" d="M221.5,107.3l-23,7.3c-1.3,0.4-2.7-0.3-3.1-1.6c-0.4-1.3,0.3-2.7,1.6-3.1l23-7.3c1.3-0.4,2.7,0.3,3.1,1.6
	C223.5,105.6,222.8,106.9,221.5,107.3L221.5,107.3z"/>
<path class="st2" d="M139.6,36.1c1.4,0,2.5,1,2.5,2.4c0,0,0,0,0,0l0.8,38.1c0,1.1-0.7,2.1-1.7,2.4c-0.2,0.1-0.5,0.1-0.7,0.1
	c-1.3,0-2.4-1-2.5-2.4l-0.8-38.2C137.2,37.2,138.3,36.1,139.6,36.1z"/>
<path class="st2" d="M235.4,100.4c0.6,2-0.5,4.1-2.4,4.8c-2,0.6-4.1-0.5-4.8-2.4s0.5-4.1,2.4-4.8c0,0,0,0,0,0
	C232.7,97.3,234.8,98.4,235.4,100.4z"/>
<circle class="st2" cx="139.8" cy="26.6" r="3.8"/>
<path class="st2" d="M37.3,181c2-0.6,4.1,0.5,4.8,2.4c0.6,2-0.5,4.1-2.4,4.8c-2,0.6-4.1-0.5-4.8-2.4c0,0,0,0,0,0
	C34.3,183.8,35.4,181.7,37.3,181z"/>
<path class="st2" d="M52.3,47c-2,0.6-4.1-0.5-4.7-2.5c-0.6-2,0.5-4.1,2.5-4.7c2-0.6,4.1,0.5,4.7,2.5C55.4,44.2,54.3,46.3,52.3,47
	C52.3,47,52.3,47,52.3,47z"/>
<path class="st2" d="M55.6,107.5c-2,0.6-4.1-0.5-4.8-2.4c-0.6-2,0.5-4.1,2.4-4.8c2-0.6,4.1,0.5,4.8,2.4c0,0,0,0,0,0
	C58.6,104.8,57.5,106.9,55.6,107.5z"/>
</svg>
