<svg class="sm:w:3-2 xl:w:3-6 fill-white" viewBox="0 0 528 470" xmlns="http://www.w3.org/2000/svg"><path d="M199.384 0.564668C79.9458 3.73638 1.16401 86.8468 0.208055 210.896C-0.410503 293.125 0.208061 375.766 0.939084 458.23C0.911232 458.778 0.911232 459.327 0.939084 459.875C1.30376 461.916 2.15591 463.828 3.4165 465.434C4.6771 467.039 6.30536 468.286 8.15036 469.06C9.99536 469.833 11.9974 470.107 13.9708 469.857C15.9443 469.606 17.8253 468.84 19.4396 467.628C58.8024 439.729 101.82 439.787 145.4 440.845C203.432 442.372 261.633 442.43 319.721 440.845C454.679 437.144 529.075 352.742 527.782 205.903C526.601 81.6194 443.433 0.97581 315.56 0.329722C276.816 0.0947804 238.072 -0.551303 199.384 0.564668ZM225.644 237.973C224.351 241.791 233.179 246.372 237.847 249.72C238.289 250.021 238.6 250.49 238.716 251.028C238.831 251.565 238.742 252.129 238.465 252.598C219.121 284.961 150.349 249.485 177.397 196.095L177.734 195.39L178.015 194.979C179.673 191.927 181.716 189.122 184.088 186.638C229.693 142.293 270.012 211.131 226.6 236.622C226.182 237.089 225.841 237.625 225.588 238.208L225.644 237.973ZM358.691 236.387C358.273 236.854 357.931 237.39 357.678 237.973V237.973C356.385 241.791 365.214 246.372 369.881 249.72C370.323 250.021 370.634 250.49 370.75 251.028C370.865 251.565 370.776 252.129 370.499 252.598C351.155 284.961 282.383 249.485 309.431 196.095L309.768 195.39V194.979C311.407 191.914 313.451 189.106 315.841 186.638C361.783 142.058 402.102 210.896 358.691 236.387Z"></path></svg>