<?xml version="1.0" encoding="utf-8"?>
<!-- Generator: Adobe Illustrator 16.0.0, SVG Export Plug-In . SVG Version: 6.00 Build 0)  -->
<!DOCTYPE svg PUBLIC "-//W3C//DTD SVG 1.1//EN" "http://www.w3.org/Graphics/SVG/1.1/DTD/svg11.dtd">
<svg version="1.1" id="Capa_1" xmlns="http://www.w3.org/2000/svg" xmlns:xlink="http://www.w3.org/1999/xlink" x="0px" y="0px"
	 width="16px" height="16px" viewBox="0 0 16 16" enable-background="new 0 0 16 16" xml:space="preserve">
<path fill-rule="evenodd" clip-rule="evenodd" fill="#010101" d="M13.932,11.014c-0.027,0.178-0.111,0.332-0.242,0.441
	c-1.145,1.9-3.225,3.17-5.602,3.17c-0.611,0-1.203-0.083-1.764-0.24c-0.046-0.014-0.095-0.026-0.14-0.042
	c-0.049-0.025-0.098-0.05-0.147-0.072c-0.189-0.128-0.312-0.345-0.312-0.592c0-0.394,0.319-0.713,0.713-0.713
	c0.038,0,0.077,0.002,0.113,0.009c0.041,0.006,0.079,0.017,0.117,0.028c0.007,0.004,0.016,0.01,0.026,0.015
	c0.438,0.122,0.902,0.188,1.383,0.188c1.89,0,3.538-1.025,4.425-2.552V8.201C12.5,8.184,12.5,8.167,12.498,8.148
	c0-0.014-0.004-0.027-0.004-0.041c0-0.015,0.004-0.028,0.004-0.041c-0.021-0.521-0.451-0.937-0.975-0.937
	c-0.502,0-0.914,0.376-0.971,0.863c0,0.016,0.002,0.031,0.002,0.047c0.004,0.023,0.004,0.045,0.004,0.067s0,0.045-0.004,0.068
	c-0.002,0.049-0.004,0.097-0.008,0.146v3.034c0.006,0.043,0.012,0.088,0.012,0.132c0,0.4-0.322,0.722-0.721,0.722h-0.01
	c-0.396,0-0.721-0.321-0.721-0.722c0-0.032,0.002-0.063,0.006-0.093V8.201C9.111,8.184,9.109,8.167,9.109,8.148
	c0-0.014-0.002-0.027-0.002-0.041c0-0.015,0.002-0.028,0.002-0.041C9.088,7.546,8.659,7.13,8.133,7.13
	c-0.506,0-0.921,0.385-0.971,0.878C7.168,8.04,7.17,8.073,7.17,8.107s-0.002,0.067-0.008,0.1C7.161,8.218,7.159,8.229,7.158,8.239
	v3.218C7.166,11.5,7.17,11.545,7.17,11.589c0,0.399-0.323,0.724-0.721,0.724c-0.379,0-0.69-0.294-0.721-0.666h0V8.619H5.063v0.695
	c0.008,0.041,0.011,0.085,0.011,0.132c0,0.157-0.05,0.303-0.134,0.421C4.808,10.05,4.595,10.17,4.353,10.17
	c-0.378,0-0.689-0.293-0.719-0.666H3.631V8.619H2.987c0.139,1.338,0.792,2.522,1.758,3.354c0.008,0.004,0.017,0.007,0.025,0.012
	c0.052,0.034,0.1,0.076,0.14,0.124c0.109,0.126,0.177,0.289,0.177,0.47c0,0.394-0.319,0.713-0.714,0.713
	c-0.081,0-0.159-0.014-0.23-0.038c-0.054-0.028-0.105-0.054-0.162-0.08c-0.001-0.001-0.005-0.002-0.009-0.005
	c-0.044-0.029-0.083-0.064-0.119-0.103c-1.409-1.199-2.302-2.988-2.302-4.985c0-3.615,2.926-6.545,6.537-6.545
	c2.184,0,4.12,1.074,5.305,2.723c0.035,0.041,0.066,0.084,0.096,0.133c0.055,0.101,0.084,0.218,0.084,0.342
	c0,0.396-0.32,0.719-0.719,0.719c-0.08,0-0.158-0.014-0.23-0.04c-0.057-0.029-0.113-0.058-0.17-0.084
	c-0.057-0.038-0.102-0.081-0.146-0.132c-0.027-0.033-0.051-0.067-0.074-0.106c-0.93-1.292-2.445-2.134-4.155-2.134
	c-2.59,0-4.729,1.926-5.07,4.426h0.696c0.368-2.125,2.215-3.738,4.44-3.738c0.682,0,1.328,0.152,1.908,0.422
	c0.057,0.021,0.115,0.049,0.166,0.083c0.191,0.127,0.316,0.346,0.316,0.594c0,0.394-0.318,0.714-0.713,0.714
	c-0.084,0-0.16-0.014-0.232-0.039c-0.061-0.021-0.117-0.05-0.17-0.085c-0.391-0.18-0.826-0.28-1.285-0.28
	c-1.44,0-2.651,0.99-2.989,2.33h0.694C6.146,6.399,7.06,5.689,8.141,5.689c0.66,0,1.257,0.265,1.695,0.694
	c0.436-0.43,1.035-0.694,1.695-0.694c0.451,0,0.877,0.125,1.238,0.342c0.705,0.424,1.176,1.194,1.176,2.076
	c0,0.076-0.004,0.152-0.014,0.227v2.481c0.008,0.03,0.01,0.061,0.01,0.093C13.941,10.944,13.938,10.979,13.932,11.014 M8,0.098
	c-4.358,0-7.893,3.538-7.893,7.901c0,4.365,3.535,7.903,7.893,7.903c4.359,0,7.892-3.538,7.892-7.903
	C15.893,3.636,12.359,0.098,8,0.098"/>
</svg>
